G04 #@! TF.FileFunction,Legend,Top*
%FSLAX46Y46*%
G04 Gerber Fmt 4.6, Leading zero omitted, Abs format (unit mm)*
G04 Created by KiCad (PCBNEW 4.0.7-e2-6376~58~ubuntu17.04.1) date Sat Sep 30 09:18:45 2017*
%MOMM*%
%LPD*%
G01*
G04 APERTURE LIST*
%ADD10C,0.100000*%
%ADD11C,0.250000*%
%ADD12C,0.300000*%
%ADD13C,0.150000*%
%ADD14C,0.120000*%
G04 APERTURE END LIST*
D10*
D11*
X74838096Y-59900000D02*
X74742858Y-59852381D01*
X74600001Y-59852381D01*
X74457143Y-59900000D01*
X74361905Y-59995238D01*
X74314286Y-60090476D01*
X74266667Y-60280952D01*
X74266667Y-60423810D01*
X74314286Y-60614286D01*
X74361905Y-60709524D01*
X74457143Y-60804762D01*
X74600001Y-60852381D01*
X74695239Y-60852381D01*
X74838096Y-60804762D01*
X74885715Y-60757143D01*
X74885715Y-60423810D01*
X74695239Y-60423810D01*
X75314286Y-60852381D02*
X75314286Y-59852381D01*
X75885715Y-60852381D01*
X75885715Y-59852381D01*
X76361905Y-60852381D02*
X76361905Y-59852381D01*
X76600000Y-59852381D01*
X76742858Y-59900000D01*
X76838096Y-59995238D01*
X76885715Y-60090476D01*
X76933334Y-60280952D01*
X76933334Y-60423810D01*
X76885715Y-60614286D01*
X76838096Y-60709524D01*
X76742858Y-60804762D01*
X76600000Y-60852381D01*
X76361905Y-60852381D01*
X110014286Y-109971429D02*
X110776191Y-109971429D01*
X110395239Y-110352381D02*
X110395239Y-109590476D01*
X111728572Y-109352381D02*
X111252381Y-109352381D01*
X111204762Y-109828571D01*
X111252381Y-109780952D01*
X111347619Y-109733333D01*
X111585715Y-109733333D01*
X111680953Y-109780952D01*
X111728572Y-109828571D01*
X111776191Y-109923810D01*
X111776191Y-110161905D01*
X111728572Y-110257143D01*
X111680953Y-110304762D01*
X111585715Y-110352381D01*
X111347619Y-110352381D01*
X111252381Y-110304762D01*
X111204762Y-110257143D01*
X112061905Y-109352381D02*
X112395238Y-110352381D01*
X112728572Y-109352381D01*
X109361905Y-59852381D02*
X109980953Y-59852381D01*
X109647619Y-60233333D01*
X109790477Y-60233333D01*
X109885715Y-60280952D01*
X109933334Y-60328571D01*
X109980953Y-60423810D01*
X109980953Y-60661905D01*
X109933334Y-60757143D01*
X109885715Y-60804762D01*
X109790477Y-60852381D01*
X109504762Y-60852381D01*
X109409524Y-60804762D01*
X109361905Y-60757143D01*
X110266667Y-59852381D02*
X110600000Y-60852381D01*
X110933334Y-59852381D01*
X111171429Y-59852381D02*
X111790477Y-59852381D01*
X111457143Y-60233333D01*
X111600001Y-60233333D01*
X111695239Y-60280952D01*
X111742858Y-60328571D01*
X111790477Y-60423810D01*
X111790477Y-60661905D01*
X111742858Y-60757143D01*
X111695239Y-60804762D01*
X111600001Y-60852381D01*
X111314286Y-60852381D01*
X111219048Y-60804762D01*
X111171429Y-60757143D01*
X109214286Y-99271429D02*
X109976191Y-99271429D01*
X109595239Y-99652381D02*
X109595239Y-98890476D01*
X110928572Y-98652381D02*
X110452381Y-98652381D01*
X110404762Y-99128571D01*
X110452381Y-99080952D01*
X110547619Y-99033333D01*
X110785715Y-99033333D01*
X110880953Y-99080952D01*
X110928572Y-99128571D01*
X110976191Y-99223810D01*
X110976191Y-99461905D01*
X110928572Y-99557143D01*
X110880953Y-99604762D01*
X110785715Y-99652381D01*
X110547619Y-99652381D01*
X110452381Y-99604762D01*
X110404762Y-99557143D01*
X111261905Y-98652381D02*
X111595238Y-99652381D01*
X111928572Y-98652381D01*
X110052381Y-96952381D02*
X109719047Y-96476190D01*
X109480952Y-96952381D02*
X109480952Y-95952381D01*
X109861905Y-95952381D01*
X109957143Y-96000000D01*
X110004762Y-96047619D01*
X110052381Y-96142857D01*
X110052381Y-96285714D01*
X110004762Y-96380952D01*
X109957143Y-96428571D01*
X109861905Y-96476190D01*
X109480952Y-96476190D01*
X110433333Y-96904762D02*
X110576190Y-96952381D01*
X110814286Y-96952381D01*
X110909524Y-96904762D01*
X110957143Y-96857143D01*
X111004762Y-96761905D01*
X111004762Y-96666667D01*
X110957143Y-96571429D01*
X110909524Y-96523810D01*
X110814286Y-96476190D01*
X110623809Y-96428571D01*
X110528571Y-96380952D01*
X110480952Y-96333333D01*
X110433333Y-96238095D01*
X110433333Y-96142857D01*
X110480952Y-96047619D01*
X110528571Y-96000000D01*
X110623809Y-95952381D01*
X110861905Y-95952381D01*
X111004762Y-96000000D01*
X111290476Y-95952381D02*
X111861905Y-95952381D01*
X111576190Y-96952381D02*
X111576190Y-95952381D01*
X109857143Y-94052381D02*
X109380952Y-94052381D01*
X109380952Y-93052381D01*
X110190476Y-93528571D02*
X110523810Y-93528571D01*
X110666667Y-94052381D02*
X110190476Y-94052381D01*
X110190476Y-93052381D01*
X110666667Y-93052381D01*
X111095238Y-94052381D02*
X111095238Y-93052381D01*
X111333333Y-93052381D01*
X111476191Y-93100000D01*
X111571429Y-93195238D01*
X111619048Y-93290476D01*
X111666667Y-93480952D01*
X111666667Y-93623810D01*
X111619048Y-93814286D01*
X111571429Y-93909524D01*
X111476191Y-94004762D01*
X111333333Y-94052381D01*
X111095238Y-94052381D01*
X109838096Y-101300000D02*
X109742858Y-101252381D01*
X109600001Y-101252381D01*
X109457143Y-101300000D01*
X109361905Y-101395238D01*
X109314286Y-101490476D01*
X109266667Y-101680952D01*
X109266667Y-101823810D01*
X109314286Y-102014286D01*
X109361905Y-102109524D01*
X109457143Y-102204762D01*
X109600001Y-102252381D01*
X109695239Y-102252381D01*
X109838096Y-102204762D01*
X109885715Y-102157143D01*
X109885715Y-101823810D01*
X109695239Y-101823810D01*
X110314286Y-102252381D02*
X110314286Y-101252381D01*
X110885715Y-102252381D01*
X110885715Y-101252381D01*
X111361905Y-102252381D02*
X111361905Y-101252381D01*
X111600000Y-101252381D01*
X111742858Y-101300000D01*
X111838096Y-101395238D01*
X111885715Y-101490476D01*
X111933334Y-101680952D01*
X111933334Y-101823810D01*
X111885715Y-102014286D01*
X111838096Y-102109524D01*
X111742858Y-102204762D01*
X111600000Y-102252381D01*
X111361905Y-102252381D01*
X109638096Y-87100000D02*
X109542858Y-87052381D01*
X109400001Y-87052381D01*
X109257143Y-87100000D01*
X109161905Y-87195238D01*
X109114286Y-87290476D01*
X109066667Y-87480952D01*
X109066667Y-87623810D01*
X109114286Y-87814286D01*
X109161905Y-87909524D01*
X109257143Y-88004762D01*
X109400001Y-88052381D01*
X109495239Y-88052381D01*
X109638096Y-88004762D01*
X109685715Y-87957143D01*
X109685715Y-87623810D01*
X109495239Y-87623810D01*
X110114286Y-88052381D02*
X110114286Y-87052381D01*
X110685715Y-88052381D01*
X110685715Y-87052381D01*
X111161905Y-88052381D02*
X111161905Y-87052381D01*
X111400000Y-87052381D01*
X111542858Y-87100000D01*
X111638096Y-87195238D01*
X111685715Y-87290476D01*
X111733334Y-87480952D01*
X111733334Y-87623810D01*
X111685715Y-87814286D01*
X111638096Y-87909524D01*
X111542858Y-88004762D01*
X111400000Y-88052381D01*
X111161905Y-88052381D01*
X109261905Y-84752381D02*
X109880953Y-84752381D01*
X109547619Y-85133333D01*
X109690477Y-85133333D01*
X109785715Y-85180952D01*
X109833334Y-85228571D01*
X109880953Y-85323810D01*
X109880953Y-85561905D01*
X109833334Y-85657143D01*
X109785715Y-85704762D01*
X109690477Y-85752381D01*
X109404762Y-85752381D01*
X109309524Y-85704762D01*
X109261905Y-85657143D01*
X110166667Y-84752381D02*
X110500000Y-85752381D01*
X110833334Y-84752381D01*
X111071429Y-84752381D02*
X111690477Y-84752381D01*
X111357143Y-85133333D01*
X111500001Y-85133333D01*
X111595239Y-85180952D01*
X111642858Y-85228571D01*
X111690477Y-85323810D01*
X111690477Y-85561905D01*
X111642858Y-85657143D01*
X111595239Y-85704762D01*
X111500001Y-85752381D01*
X111214286Y-85752381D01*
X111119048Y-85704762D01*
X111071429Y-85657143D01*
X109285714Y-82904762D02*
X109428571Y-82952381D01*
X109666667Y-82952381D01*
X109761905Y-82904762D01*
X109809524Y-82857143D01*
X109857143Y-82761905D01*
X109857143Y-82666667D01*
X109809524Y-82571429D01*
X109761905Y-82523810D01*
X109666667Y-82476190D01*
X109476190Y-82428571D01*
X109380952Y-82380952D01*
X109333333Y-82333333D01*
X109285714Y-82238095D01*
X109285714Y-82142857D01*
X109333333Y-82047619D01*
X109380952Y-82000000D01*
X109476190Y-81952381D01*
X109714286Y-81952381D01*
X109857143Y-82000000D01*
X110285714Y-82952381D02*
X110285714Y-81952381D01*
X110523809Y-81952381D01*
X110666667Y-82000000D01*
X110761905Y-82095238D01*
X110809524Y-82190476D01*
X110857143Y-82380952D01*
X110857143Y-82523810D01*
X110809524Y-82714286D01*
X110761905Y-82809524D01*
X110666667Y-82904762D01*
X110523809Y-82952381D01*
X110285714Y-82952381D01*
X111238095Y-82666667D02*
X111714286Y-82666667D01*
X111142857Y-82952381D02*
X111476190Y-81952381D01*
X111809524Y-82952381D01*
X109309524Y-80204762D02*
X109452381Y-80252381D01*
X109690477Y-80252381D01*
X109785715Y-80204762D01*
X109833334Y-80157143D01*
X109880953Y-80061905D01*
X109880953Y-79966667D01*
X109833334Y-79871429D01*
X109785715Y-79823810D01*
X109690477Y-79776190D01*
X109500000Y-79728571D01*
X109404762Y-79680952D01*
X109357143Y-79633333D01*
X109309524Y-79538095D01*
X109309524Y-79442857D01*
X109357143Y-79347619D01*
X109404762Y-79300000D01*
X109500000Y-79252381D01*
X109738096Y-79252381D01*
X109880953Y-79300000D01*
X110880953Y-80157143D02*
X110833334Y-80204762D01*
X110690477Y-80252381D01*
X110595239Y-80252381D01*
X110452381Y-80204762D01*
X110357143Y-80109524D01*
X110309524Y-80014286D01*
X110261905Y-79823810D01*
X110261905Y-79680952D01*
X110309524Y-79490476D01*
X110357143Y-79395238D01*
X110452381Y-79300000D01*
X110595239Y-79252381D01*
X110690477Y-79252381D01*
X110833334Y-79300000D01*
X110880953Y-79347619D01*
X111785715Y-80252381D02*
X111309524Y-80252381D01*
X111309524Y-79252381D01*
X109938096Y-73100000D02*
X109842858Y-73052381D01*
X109700001Y-73052381D01*
X109557143Y-73100000D01*
X109461905Y-73195238D01*
X109414286Y-73290476D01*
X109366667Y-73480952D01*
X109366667Y-73623810D01*
X109414286Y-73814286D01*
X109461905Y-73909524D01*
X109557143Y-74004762D01*
X109700001Y-74052381D01*
X109795239Y-74052381D01*
X109938096Y-74004762D01*
X109985715Y-73957143D01*
X109985715Y-73623810D01*
X109795239Y-73623810D01*
X110414286Y-74052381D02*
X110414286Y-73052381D01*
X110985715Y-74052381D01*
X110985715Y-73052381D01*
X111461905Y-74052381D02*
X111461905Y-73052381D01*
X111700000Y-73052381D01*
X111842858Y-73100000D01*
X111938096Y-73195238D01*
X111985715Y-73290476D01*
X112033334Y-73480952D01*
X112033334Y-73623810D01*
X111985715Y-73814286D01*
X111938096Y-73909524D01*
X111842858Y-74004762D01*
X111700000Y-74052381D01*
X111461905Y-74052381D01*
X109461905Y-70552381D02*
X110080953Y-70552381D01*
X109747619Y-70933333D01*
X109890477Y-70933333D01*
X109985715Y-70980952D01*
X110033334Y-71028571D01*
X110080953Y-71123810D01*
X110080953Y-71361905D01*
X110033334Y-71457143D01*
X109985715Y-71504762D01*
X109890477Y-71552381D01*
X109604762Y-71552381D01*
X109509524Y-71504762D01*
X109461905Y-71457143D01*
X110366667Y-70552381D02*
X110700000Y-71552381D01*
X111033334Y-70552381D01*
X111271429Y-70552381D02*
X111890477Y-70552381D01*
X111557143Y-70933333D01*
X111700001Y-70933333D01*
X111795239Y-70980952D01*
X111842858Y-71028571D01*
X111890477Y-71123810D01*
X111890477Y-71361905D01*
X111842858Y-71457143D01*
X111795239Y-71504762D01*
X111700001Y-71552381D01*
X111414286Y-71552381D01*
X111319048Y-71504762D01*
X111271429Y-71457143D01*
X110133334Y-68952381D02*
X109800000Y-68476190D01*
X109561905Y-68952381D02*
X109561905Y-67952381D01*
X109942858Y-67952381D01*
X110038096Y-68000000D01*
X110085715Y-68047619D01*
X110133334Y-68142857D01*
X110133334Y-68285714D01*
X110085715Y-68380952D01*
X110038096Y-68428571D01*
X109942858Y-68476190D01*
X109561905Y-68476190D01*
X110466667Y-67952381D02*
X111133334Y-68952381D01*
X111133334Y-67952381D02*
X110466667Y-68952381D01*
X111514286Y-68952381D02*
X111514286Y-67952381D01*
X111752381Y-67952381D01*
X111895239Y-68000000D01*
X111990477Y-68095238D01*
X112038096Y-68190476D01*
X112085715Y-68380952D01*
X112085715Y-68523810D01*
X112038096Y-68714286D01*
X111990477Y-68809524D01*
X111895239Y-68904762D01*
X111752381Y-68952381D01*
X111514286Y-68952381D01*
X109638095Y-65252381D02*
X110209524Y-65252381D01*
X109923809Y-66252381D02*
X109923809Y-65252381D01*
X110447619Y-65252381D02*
X111114286Y-66252381D01*
X111114286Y-65252381D02*
X110447619Y-66252381D01*
X111495238Y-66252381D02*
X111495238Y-65252381D01*
X111733333Y-65252381D01*
X111876191Y-65300000D01*
X111971429Y-65395238D01*
X112019048Y-65490476D01*
X112066667Y-65680952D01*
X112066667Y-65823810D01*
X112019048Y-66014286D01*
X111971429Y-66109524D01*
X111876191Y-66204762D01*
X111733333Y-66252381D01*
X111495238Y-66252381D01*
X105304762Y-111990476D02*
X105352381Y-111847619D01*
X105352381Y-111609523D01*
X105304762Y-111514285D01*
X105257143Y-111466666D01*
X105161905Y-111419047D01*
X105066667Y-111419047D01*
X104971429Y-111466666D01*
X104923810Y-111514285D01*
X104876190Y-111609523D01*
X104828571Y-111800000D01*
X104780952Y-111895238D01*
X104733333Y-111942857D01*
X104638095Y-111990476D01*
X104542857Y-111990476D01*
X104447619Y-111942857D01*
X104400000Y-111895238D01*
X104352381Y-111800000D01*
X104352381Y-111561904D01*
X104400000Y-111419047D01*
X105257143Y-110419047D02*
X105304762Y-110466666D01*
X105352381Y-110609523D01*
X105352381Y-110704761D01*
X105304762Y-110847619D01*
X105209524Y-110942857D01*
X105114286Y-110990476D01*
X104923810Y-111038095D01*
X104780952Y-111038095D01*
X104590476Y-110990476D01*
X104495238Y-110942857D01*
X104400000Y-110847619D01*
X104352381Y-110704761D01*
X104352381Y-110609523D01*
X104400000Y-110466666D01*
X104447619Y-110419047D01*
X105352381Y-109514285D02*
X105352381Y-109990476D01*
X104352381Y-109990476D01*
X105352381Y-109180952D02*
X104352381Y-109180952D01*
X105352381Y-108609523D02*
X104780952Y-109038095D01*
X104352381Y-108609523D02*
X104923810Y-109180952D01*
X101352381Y-111419047D02*
X100876190Y-111752381D01*
X101352381Y-111990476D02*
X100352381Y-111990476D01*
X100352381Y-111609523D01*
X100400000Y-111514285D01*
X100447619Y-111466666D01*
X100542857Y-111419047D01*
X100685714Y-111419047D01*
X100780952Y-111466666D01*
X100828571Y-111514285D01*
X100876190Y-111609523D01*
X100876190Y-111990476D01*
X100828571Y-110990476D02*
X100828571Y-110657142D01*
X101352381Y-110514285D02*
X101352381Y-110990476D01*
X100352381Y-110990476D01*
X100352381Y-110514285D01*
X101304762Y-110133333D02*
X101352381Y-109990476D01*
X101352381Y-109752380D01*
X101304762Y-109657142D01*
X101257143Y-109609523D01*
X101161905Y-109561904D01*
X101066667Y-109561904D01*
X100971429Y-109609523D01*
X100923810Y-109657142D01*
X100876190Y-109752380D01*
X100828571Y-109942857D01*
X100780952Y-110038095D01*
X100733333Y-110085714D01*
X100638095Y-110133333D01*
X100542857Y-110133333D01*
X100447619Y-110085714D01*
X100400000Y-110038095D01*
X100352381Y-109942857D01*
X100352381Y-109704761D01*
X100400000Y-109561904D01*
X99352381Y-111961905D02*
X98352381Y-111961905D01*
X98352381Y-111723810D01*
X98400000Y-111580952D01*
X98495238Y-111485714D01*
X98590476Y-111438095D01*
X98780952Y-111390476D01*
X98923810Y-111390476D01*
X99114286Y-111438095D01*
X99209524Y-111485714D01*
X99304762Y-111580952D01*
X99352381Y-111723810D01*
X99352381Y-111961905D01*
X99257143Y-110390476D02*
X99304762Y-110438095D01*
X99352381Y-110580952D01*
X99352381Y-110676190D01*
X99304762Y-110819048D01*
X99209524Y-110914286D01*
X99114286Y-110961905D01*
X98923810Y-111009524D01*
X98780952Y-111009524D01*
X98590476Y-110961905D01*
X98495238Y-110914286D01*
X98400000Y-110819048D01*
X98352381Y-110676190D01*
X98352381Y-110580952D01*
X98400000Y-110438095D01*
X98447619Y-110390476D01*
X103252381Y-111971428D02*
X102252381Y-111971428D01*
X102966667Y-111638094D01*
X102252381Y-111304761D01*
X103252381Y-111304761D01*
X102252381Y-110638095D02*
X102252381Y-110447618D01*
X102300000Y-110352380D01*
X102395238Y-110257142D01*
X102585714Y-110209523D01*
X102919048Y-110209523D01*
X103109524Y-110257142D01*
X103204762Y-110352380D01*
X103252381Y-110447618D01*
X103252381Y-110638095D01*
X103204762Y-110733333D01*
X103109524Y-110828571D01*
X102919048Y-110876190D01*
X102585714Y-110876190D01*
X102395238Y-110828571D01*
X102300000Y-110733333D01*
X102252381Y-110638095D01*
X103204762Y-109828571D02*
X103252381Y-109685714D01*
X103252381Y-109447618D01*
X103204762Y-109352380D01*
X103157143Y-109304761D01*
X103061905Y-109257142D01*
X102966667Y-109257142D01*
X102871429Y-109304761D01*
X102823810Y-109352380D01*
X102776190Y-109447618D01*
X102728571Y-109638095D01*
X102680952Y-109733333D01*
X102633333Y-109780952D01*
X102538095Y-109828571D01*
X102442857Y-109828571D01*
X102347619Y-109780952D01*
X102300000Y-109733333D01*
X102252381Y-109638095D01*
X102252381Y-109399999D01*
X102300000Y-109257142D01*
X103252381Y-108828571D02*
X102252381Y-108828571D01*
X97357143Y-111466666D02*
X97404762Y-111514285D01*
X97452381Y-111657142D01*
X97452381Y-111752380D01*
X97404762Y-111895238D01*
X97309524Y-111990476D01*
X97214286Y-112038095D01*
X97023810Y-112085714D01*
X96880952Y-112085714D01*
X96690476Y-112038095D01*
X96595238Y-111990476D01*
X96500000Y-111895238D01*
X96452381Y-111752380D01*
X96452381Y-111657142D01*
X96500000Y-111514285D01*
X96547619Y-111466666D01*
X97404762Y-111085714D02*
X97452381Y-110942857D01*
X97452381Y-110704761D01*
X97404762Y-110609523D01*
X97357143Y-110561904D01*
X97261905Y-110514285D01*
X97166667Y-110514285D01*
X97071429Y-110561904D01*
X97023810Y-110609523D01*
X96976190Y-110704761D01*
X96928571Y-110895238D01*
X96880952Y-110990476D01*
X96833333Y-111038095D01*
X96738095Y-111085714D01*
X96642857Y-111085714D01*
X96547619Y-111038095D01*
X96500000Y-110990476D01*
X96452381Y-110895238D01*
X96452381Y-110657142D01*
X96500000Y-110514285D01*
D12*
X93078571Y-116578572D02*
X93078571Y-116292858D01*
X93150000Y-116150000D01*
X93292857Y-116007143D01*
X93578571Y-115935715D01*
X94078571Y-115935715D01*
X94364286Y-116007143D01*
X94507143Y-116150000D01*
X94578571Y-116292858D01*
X94578571Y-116578572D01*
X94507143Y-116721429D01*
X94364286Y-116864286D01*
X94078571Y-116935715D01*
X93578571Y-116935715D01*
X93292857Y-116864286D01*
X93150000Y-116721429D01*
X93078571Y-116578572D01*
X94578571Y-114578571D02*
X94578571Y-115292857D01*
X93078571Y-115292857D01*
X93792857Y-114078571D02*
X93792857Y-113578571D01*
X94578571Y-113364285D02*
X94578571Y-114078571D01*
X93078571Y-114078571D01*
X93078571Y-113364285D01*
X94578571Y-112721428D02*
X93078571Y-112721428D01*
X93078571Y-112364285D01*
X93150000Y-112150000D01*
X93292857Y-112007142D01*
X93435714Y-111935714D01*
X93721429Y-111864285D01*
X93935714Y-111864285D01*
X94221429Y-111935714D01*
X94364286Y-112007142D01*
X94507143Y-112150000D01*
X94578571Y-112364285D01*
X94578571Y-112721428D01*
X128171429Y-82000001D02*
X128171429Y-81714287D01*
X128100000Y-81571430D01*
X128028571Y-81500001D01*
X127814286Y-81357144D01*
X127528571Y-81285715D01*
X126957143Y-81285715D01*
X126814286Y-81357144D01*
X126742857Y-81428572D01*
X126671429Y-81571430D01*
X126671429Y-81857144D01*
X126742857Y-82000001D01*
X126814286Y-82071430D01*
X126957143Y-82142858D01*
X127314286Y-82142858D01*
X127457143Y-82071430D01*
X127528571Y-82000001D01*
X127600000Y-81857144D01*
X127600000Y-81571430D01*
X127528571Y-81428572D01*
X127457143Y-81357144D01*
X127314286Y-81285715D01*
X128171429Y-83500001D02*
X128171429Y-82785715D01*
X127457143Y-82714286D01*
X127528571Y-82785715D01*
X127600000Y-82928572D01*
X127600000Y-83285715D01*
X127528571Y-83428572D01*
X127457143Y-83500001D01*
X127314286Y-83571429D01*
X126957143Y-83571429D01*
X126814286Y-83500001D01*
X126742857Y-83428572D01*
X126671429Y-83285715D01*
X126671429Y-82928572D01*
X126742857Y-82785715D01*
X126814286Y-82714286D01*
X126814286Y-84214286D02*
X126742857Y-84285714D01*
X126671429Y-84214286D01*
X126742857Y-84142857D01*
X126814286Y-84214286D01*
X126671429Y-84214286D01*
X128171429Y-85214286D02*
X128171429Y-85357143D01*
X128100000Y-85500000D01*
X128028571Y-85571429D01*
X127885714Y-85642858D01*
X127600000Y-85714286D01*
X127242857Y-85714286D01*
X126957143Y-85642858D01*
X126814286Y-85571429D01*
X126742857Y-85500000D01*
X126671429Y-85357143D01*
X126671429Y-85214286D01*
X126742857Y-85071429D01*
X126814286Y-85000000D01*
X126957143Y-84928572D01*
X127242857Y-84857143D01*
X127600000Y-84857143D01*
X127885714Y-84928572D01*
X128028571Y-85000000D01*
X128100000Y-85071429D01*
X128171429Y-85214286D01*
X128171429Y-86642857D02*
X128171429Y-86785714D01*
X128100000Y-86928571D01*
X128028571Y-87000000D01*
X127885714Y-87071429D01*
X127600000Y-87142857D01*
X127242857Y-87142857D01*
X126957143Y-87071429D01*
X126814286Y-87000000D01*
X126742857Y-86928571D01*
X126671429Y-86785714D01*
X126671429Y-86642857D01*
X126742857Y-86500000D01*
X126814286Y-86428571D01*
X126957143Y-86357143D01*
X127242857Y-86285714D01*
X127600000Y-86285714D01*
X127885714Y-86357143D01*
X128028571Y-86428571D01*
X128100000Y-86500000D01*
X128171429Y-86642857D01*
X128171429Y-88071428D02*
X128171429Y-88214285D01*
X128100000Y-88357142D01*
X128028571Y-88428571D01*
X127885714Y-88500000D01*
X127600000Y-88571428D01*
X127242857Y-88571428D01*
X126957143Y-88500000D01*
X126814286Y-88428571D01*
X126742857Y-88357142D01*
X126671429Y-88214285D01*
X126671429Y-88071428D01*
X126742857Y-87928571D01*
X126814286Y-87857142D01*
X126957143Y-87785714D01*
X127242857Y-87714285D01*
X127600000Y-87714285D01*
X127885714Y-87785714D01*
X128028571Y-87857142D01*
X128100000Y-87928571D01*
X128171429Y-88071428D01*
X126671429Y-90357142D02*
X127671429Y-90357142D01*
X127528571Y-90357142D02*
X127600000Y-90428570D01*
X127671429Y-90571428D01*
X127671429Y-90785713D01*
X127600000Y-90928570D01*
X127457143Y-90999999D01*
X126671429Y-90999999D01*
X127457143Y-90999999D02*
X127600000Y-91071428D01*
X127671429Y-91214285D01*
X127671429Y-91428570D01*
X127600000Y-91571428D01*
X127457143Y-91642856D01*
X126671429Y-91642856D01*
X126671429Y-92357142D02*
X127671429Y-92357142D01*
X127528571Y-92357142D02*
X127600000Y-92428570D01*
X127671429Y-92571428D01*
X127671429Y-92785713D01*
X127600000Y-92928570D01*
X127457143Y-92999999D01*
X126671429Y-92999999D01*
X127457143Y-92999999D02*
X127600000Y-93071428D01*
X127671429Y-93214285D01*
X127671429Y-93428570D01*
X127600000Y-93571428D01*
X127457143Y-93642856D01*
X126671429Y-93642856D01*
X126000000Y-55000000D02*
X126000000Y-120000000D01*
X121000000Y-55000000D02*
X128700000Y-55000000D01*
X121000000Y-120000000D02*
X128700000Y-120000000D01*
X126000000Y-120000000D02*
X125413579Y-118873496D01*
X126000000Y-120000000D02*
X126586421Y-118873496D01*
X126000000Y-55000000D02*
X125413579Y-56126504D01*
X126000000Y-55000000D02*
X126586421Y-56126504D01*
X87571430Y-124528571D02*
X86857144Y-124528571D01*
X86785715Y-125242857D01*
X86857144Y-125171429D01*
X87000001Y-125100000D01*
X87357144Y-125100000D01*
X87500001Y-125171429D01*
X87571430Y-125242857D01*
X87642858Y-125385714D01*
X87642858Y-125742857D01*
X87571430Y-125885714D01*
X87500001Y-125957143D01*
X87357144Y-126028571D01*
X87000001Y-126028571D01*
X86857144Y-125957143D01*
X86785715Y-125885714D01*
X88928572Y-124528571D02*
X88642858Y-124528571D01*
X88500001Y-124600000D01*
X88428572Y-124671429D01*
X88285715Y-124885714D01*
X88214286Y-125171429D01*
X88214286Y-125742857D01*
X88285715Y-125885714D01*
X88357143Y-125957143D01*
X88500001Y-126028571D01*
X88785715Y-126028571D01*
X88928572Y-125957143D01*
X89000001Y-125885714D01*
X89071429Y-125742857D01*
X89071429Y-125385714D01*
X89000001Y-125242857D01*
X88928572Y-125171429D01*
X88785715Y-125100000D01*
X88500001Y-125100000D01*
X88357143Y-125171429D01*
X88285715Y-125242857D01*
X88214286Y-125385714D01*
X89714286Y-125885714D02*
X89785714Y-125957143D01*
X89714286Y-126028571D01*
X89642857Y-125957143D01*
X89714286Y-125885714D01*
X89714286Y-126028571D01*
X90714286Y-124528571D02*
X90857143Y-124528571D01*
X91000000Y-124600000D01*
X91071429Y-124671429D01*
X91142858Y-124814286D01*
X91214286Y-125100000D01*
X91214286Y-125457143D01*
X91142858Y-125742857D01*
X91071429Y-125885714D01*
X91000000Y-125957143D01*
X90857143Y-126028571D01*
X90714286Y-126028571D01*
X90571429Y-125957143D01*
X90500000Y-125885714D01*
X90428572Y-125742857D01*
X90357143Y-125457143D01*
X90357143Y-125100000D01*
X90428572Y-124814286D01*
X90500000Y-124671429D01*
X90571429Y-124600000D01*
X90714286Y-124528571D01*
X92142857Y-124528571D02*
X92285714Y-124528571D01*
X92428571Y-124600000D01*
X92500000Y-124671429D01*
X92571429Y-124814286D01*
X92642857Y-125100000D01*
X92642857Y-125457143D01*
X92571429Y-125742857D01*
X92500000Y-125885714D01*
X92428571Y-125957143D01*
X92285714Y-126028571D01*
X92142857Y-126028571D01*
X92000000Y-125957143D01*
X91928571Y-125885714D01*
X91857143Y-125742857D01*
X91785714Y-125457143D01*
X91785714Y-125100000D01*
X91857143Y-124814286D01*
X91928571Y-124671429D01*
X92000000Y-124600000D01*
X92142857Y-124528571D01*
X93571428Y-124528571D02*
X93714285Y-124528571D01*
X93857142Y-124600000D01*
X93928571Y-124671429D01*
X94000000Y-124814286D01*
X94071428Y-125100000D01*
X94071428Y-125457143D01*
X94000000Y-125742857D01*
X93928571Y-125885714D01*
X93857142Y-125957143D01*
X93714285Y-126028571D01*
X93571428Y-126028571D01*
X93428571Y-125957143D01*
X93357142Y-125885714D01*
X93285714Y-125742857D01*
X93214285Y-125457143D01*
X93214285Y-125100000D01*
X93285714Y-124814286D01*
X93357142Y-124671429D01*
X93428571Y-124600000D01*
X93571428Y-124528571D01*
X95857142Y-126028571D02*
X95857142Y-125028571D01*
X95857142Y-125171429D02*
X95928570Y-125100000D01*
X96071428Y-125028571D01*
X96285713Y-125028571D01*
X96428570Y-125100000D01*
X96499999Y-125242857D01*
X96499999Y-126028571D01*
X96499999Y-125242857D02*
X96571428Y-125100000D01*
X96714285Y-125028571D01*
X96928570Y-125028571D01*
X97071428Y-125100000D01*
X97142856Y-125242857D01*
X97142856Y-126028571D01*
X97857142Y-126028571D02*
X97857142Y-125028571D01*
X97857142Y-125171429D02*
X97928570Y-125100000D01*
X98071428Y-125028571D01*
X98285713Y-125028571D01*
X98428570Y-125100000D01*
X98499999Y-125242857D01*
X98499999Y-126028571D01*
X98499999Y-125242857D02*
X98571428Y-125100000D01*
X98714285Y-125028571D01*
X98928570Y-125028571D01*
X99071428Y-125100000D01*
X99142856Y-125242857D01*
X99142856Y-126028571D01*
X65000000Y-124000000D02*
X121000000Y-124000000D01*
X65000000Y-120000000D02*
X65000000Y-126700000D01*
X121000000Y-120000000D02*
X121000000Y-126700000D01*
X121000000Y-124000000D02*
X119873496Y-124586421D01*
X121000000Y-124000000D02*
X119873496Y-123413579D01*
X65000000Y-124000000D02*
X66126504Y-124586421D01*
X65000000Y-124000000D02*
X66126504Y-123413579D01*
D13*
X75480000Y-110520000D02*
X78020000Y-110520000D01*
X75480000Y-107980000D02*
X78020000Y-107980000D01*
X78020000Y-107980000D02*
X76750000Y-110520000D01*
X76750000Y-110520000D02*
X75480000Y-107980000D01*
X79950000Y-105750000D02*
X79950000Y-114050000D01*
X73550000Y-114050000D02*
X73550000Y-105750000D01*
X81850000Y-101650000D02*
X81850000Y-102650000D01*
X83550000Y-102650000D02*
X83550000Y-101650000D01*
X81070000Y-110470000D02*
X81070000Y-119830000D01*
X81070000Y-119830000D02*
X90240000Y-119830000D01*
X90240000Y-119830000D02*
X90240000Y-110470000D01*
X81070000Y-110470000D02*
X82700000Y-110470000D01*
X90240000Y-110470000D02*
X88610000Y-110470000D01*
X84800000Y-110470000D02*
X86510000Y-110470000D01*
X81070000Y-116550000D02*
X90240000Y-116550000D01*
X83750000Y-109450000D02*
X84050000Y-108850000D01*
X84050000Y-108850000D02*
X83450000Y-108850000D01*
X83450000Y-108850000D02*
X83750000Y-109450000D01*
X107900000Y-113500000D02*
X107900000Y-115500000D01*
X107900000Y-115500000D02*
X95900000Y-115500000D01*
X95900000Y-115500000D02*
X95900000Y-113500000D01*
X95900000Y-113500000D02*
X107900000Y-113500000D01*
X108900000Y-113000000D02*
X110400000Y-113000000D01*
X110400000Y-113000000D02*
X110400000Y-114500000D01*
X113700000Y-64372000D02*
X113700000Y-65922000D01*
X115000000Y-64372000D02*
X113700000Y-64372000D01*
X119191000Y-65795000D02*
X125033000Y-65795000D01*
X125033000Y-65795000D02*
X125033000Y-66049000D01*
X125033000Y-66049000D02*
X119191000Y-66049000D01*
X119191000Y-66049000D02*
X119191000Y-65922000D01*
X119191000Y-65922000D02*
X125033000Y-65922000D01*
X116524000Y-65668000D02*
X116143000Y-65668000D01*
X116524000Y-66176000D02*
X116143000Y-66176000D01*
X116524000Y-68208000D02*
X116143000Y-68208000D01*
X116524000Y-68716000D02*
X116143000Y-68716000D01*
X116524000Y-70748000D02*
X116143000Y-70748000D01*
X116524000Y-71256000D02*
X116143000Y-71256000D01*
X116524000Y-73796000D02*
X116143000Y-73796000D01*
X116524000Y-73288000D02*
X116143000Y-73288000D01*
X116524000Y-64652000D02*
X119064000Y-64652000D01*
X116524000Y-67192000D02*
X119064000Y-67192000D01*
X116524000Y-67192000D02*
X116524000Y-69732000D01*
X116524000Y-69732000D02*
X119064000Y-69732000D01*
X119064000Y-68208000D02*
X125160000Y-68208000D01*
X125160000Y-68208000D02*
X125160000Y-68716000D01*
X125160000Y-68716000D02*
X119064000Y-68716000D01*
X119064000Y-69732000D02*
X119064000Y-67192000D01*
X119064000Y-67192000D02*
X119064000Y-64652000D01*
X125160000Y-66176000D02*
X119064000Y-66176000D01*
X125160000Y-65668000D02*
X125160000Y-66176000D01*
X119064000Y-65668000D02*
X125160000Y-65668000D01*
X116524000Y-67192000D02*
X119064000Y-67192000D01*
X116524000Y-64652000D02*
X116524000Y-67192000D01*
X116524000Y-72272000D02*
X119064000Y-72272000D01*
X116524000Y-72272000D02*
X116524000Y-74812000D01*
X116524000Y-74812000D02*
X119064000Y-74812000D01*
X119064000Y-73288000D02*
X125160000Y-73288000D01*
X125160000Y-73288000D02*
X125160000Y-73796000D01*
X125160000Y-73796000D02*
X119064000Y-73796000D01*
X119064000Y-74812000D02*
X119064000Y-72272000D01*
X119064000Y-72272000D02*
X119064000Y-69732000D01*
X125160000Y-71256000D02*
X119064000Y-71256000D01*
X125160000Y-70748000D02*
X125160000Y-71256000D01*
X119064000Y-70748000D02*
X125160000Y-70748000D01*
X116524000Y-72272000D02*
X119064000Y-72272000D01*
X116524000Y-69732000D02*
X116524000Y-72272000D01*
X116524000Y-69732000D02*
X119064000Y-69732000D01*
X113700000Y-78342000D02*
X113700000Y-79892000D01*
X115000000Y-78342000D02*
X113700000Y-78342000D01*
X119191000Y-79765000D02*
X125033000Y-79765000D01*
X125033000Y-79765000D02*
X125033000Y-80019000D01*
X125033000Y-80019000D02*
X119191000Y-80019000D01*
X119191000Y-80019000D02*
X119191000Y-79892000D01*
X119191000Y-79892000D02*
X125033000Y-79892000D01*
X116524000Y-79638000D02*
X116143000Y-79638000D01*
X116524000Y-80146000D02*
X116143000Y-80146000D01*
X116524000Y-82178000D02*
X116143000Y-82178000D01*
X116524000Y-82686000D02*
X116143000Y-82686000D01*
X116524000Y-84718000D02*
X116143000Y-84718000D01*
X116524000Y-85226000D02*
X116143000Y-85226000D01*
X116524000Y-87766000D02*
X116143000Y-87766000D01*
X116524000Y-87258000D02*
X116143000Y-87258000D01*
X116524000Y-78622000D02*
X119064000Y-78622000D01*
X116524000Y-81162000D02*
X119064000Y-81162000D01*
X116524000Y-81162000D02*
X116524000Y-83702000D01*
X116524000Y-83702000D02*
X119064000Y-83702000D01*
X119064000Y-82178000D02*
X125160000Y-82178000D01*
X125160000Y-82178000D02*
X125160000Y-82686000D01*
X125160000Y-82686000D02*
X119064000Y-82686000D01*
X119064000Y-83702000D02*
X119064000Y-81162000D01*
X119064000Y-81162000D02*
X119064000Y-78622000D01*
X125160000Y-80146000D02*
X119064000Y-80146000D01*
X125160000Y-79638000D02*
X125160000Y-80146000D01*
X119064000Y-79638000D02*
X125160000Y-79638000D01*
X116524000Y-81162000D02*
X119064000Y-81162000D01*
X116524000Y-78622000D02*
X116524000Y-81162000D01*
X116524000Y-86242000D02*
X119064000Y-86242000D01*
X116524000Y-86242000D02*
X116524000Y-88782000D01*
X116524000Y-88782000D02*
X119064000Y-88782000D01*
X119064000Y-87258000D02*
X125160000Y-87258000D01*
X125160000Y-87258000D02*
X125160000Y-87766000D01*
X125160000Y-87766000D02*
X119064000Y-87766000D01*
X119064000Y-88782000D02*
X119064000Y-86242000D01*
X119064000Y-86242000D02*
X119064000Y-83702000D01*
X125160000Y-85226000D02*
X119064000Y-85226000D01*
X125160000Y-84718000D02*
X125160000Y-85226000D01*
X119064000Y-84718000D02*
X125160000Y-84718000D01*
X116524000Y-86242000D02*
X119064000Y-86242000D01*
X116524000Y-83702000D02*
X116524000Y-86242000D01*
X116524000Y-83702000D02*
X119064000Y-83702000D01*
X113700000Y-92312000D02*
X113700000Y-93862000D01*
X115000000Y-92312000D02*
X113700000Y-92312000D01*
X119191000Y-93735000D02*
X125033000Y-93735000D01*
X125033000Y-93735000D02*
X125033000Y-93989000D01*
X125033000Y-93989000D02*
X119191000Y-93989000D01*
X119191000Y-93989000D02*
X119191000Y-93862000D01*
X119191000Y-93862000D02*
X125033000Y-93862000D01*
X116524000Y-93608000D02*
X116143000Y-93608000D01*
X116524000Y-94116000D02*
X116143000Y-94116000D01*
X116524000Y-96148000D02*
X116143000Y-96148000D01*
X116524000Y-96656000D02*
X116143000Y-96656000D01*
X116524000Y-98688000D02*
X116143000Y-98688000D01*
X116524000Y-99196000D02*
X116143000Y-99196000D01*
X116524000Y-101736000D02*
X116143000Y-101736000D01*
X116524000Y-101228000D02*
X116143000Y-101228000D01*
X116524000Y-92592000D02*
X119064000Y-92592000D01*
X116524000Y-95132000D02*
X119064000Y-95132000D01*
X116524000Y-95132000D02*
X116524000Y-97672000D01*
X116524000Y-97672000D02*
X119064000Y-97672000D01*
X119064000Y-96148000D02*
X125160000Y-96148000D01*
X125160000Y-96148000D02*
X125160000Y-96656000D01*
X125160000Y-96656000D02*
X119064000Y-96656000D01*
X119064000Y-97672000D02*
X119064000Y-95132000D01*
X119064000Y-95132000D02*
X119064000Y-92592000D01*
X125160000Y-94116000D02*
X119064000Y-94116000D01*
X125160000Y-93608000D02*
X125160000Y-94116000D01*
X119064000Y-93608000D02*
X125160000Y-93608000D01*
X116524000Y-95132000D02*
X119064000Y-95132000D01*
X116524000Y-92592000D02*
X116524000Y-95132000D01*
X116524000Y-100212000D02*
X119064000Y-100212000D01*
X116524000Y-100212000D02*
X116524000Y-102752000D01*
X116524000Y-102752000D02*
X119064000Y-102752000D01*
X119064000Y-101228000D02*
X125160000Y-101228000D01*
X125160000Y-101228000D02*
X125160000Y-101736000D01*
X125160000Y-101736000D02*
X119064000Y-101736000D01*
X119064000Y-102752000D02*
X119064000Y-100212000D01*
X119064000Y-100212000D02*
X119064000Y-97672000D01*
X125160000Y-99196000D02*
X119064000Y-99196000D01*
X125160000Y-98688000D02*
X125160000Y-99196000D01*
X119064000Y-98688000D02*
X125160000Y-98688000D01*
X116524000Y-100212000D02*
X119064000Y-100212000D01*
X116524000Y-97672000D02*
X116524000Y-100212000D01*
X116524000Y-97672000D02*
X119064000Y-97672000D01*
X77020000Y-59100000D02*
X74520000Y-59100000D01*
X77020000Y-57100000D02*
X74520000Y-57100000D01*
X77020000Y-59100000D02*
G75*
G03X77020000Y-57100000I0J1000000D01*
G01*
X74520000Y-57100000D02*
G75*
G03X74520000Y-59100000I0J-1000000D01*
G01*
X112720000Y-108500000D02*
X110220000Y-108500000D01*
X112720000Y-106500000D02*
X110220000Y-106500000D01*
X112720000Y-108500000D02*
G75*
G03X112720000Y-106500000I0J1000000D01*
G01*
X110220000Y-106500000D02*
G75*
G03X110220000Y-108500000I0J-1000000D01*
G01*
X111720000Y-59100000D02*
X109220000Y-59100000D01*
X111720000Y-57100000D02*
X109220000Y-57100000D01*
X111720000Y-59100000D02*
G75*
G03X111720000Y-57100000I0J1000000D01*
G01*
X109220000Y-57100000D02*
G75*
G03X109220000Y-59100000I0J-1000000D01*
G01*
X66016000Y-62120000D02*
X66016000Y-112920000D01*
X71096000Y-110380000D02*
X71096000Y-62120000D01*
X66016000Y-62120000D02*
X71096000Y-62120000D01*
X66016000Y-112920000D02*
X68556000Y-112920000D01*
X69826000Y-113200000D02*
X71376000Y-113200000D01*
X68556000Y-112920000D02*
X68556000Y-110380000D01*
X68556000Y-110380000D02*
X71096000Y-110380000D01*
X71376000Y-113200000D02*
X71376000Y-111650000D01*
X84250000Y-107325000D02*
X82250000Y-107325000D01*
X82250000Y-105175000D02*
X84250000Y-105175000D01*
X83639000Y-85905000D02*
G75*
G03X83639000Y-85905000I-127000J0D01*
G01*
X84147000Y-86540000D02*
X84147000Y-81460000D01*
X80845000Y-86540000D02*
X80845000Y-81460000D01*
X84655000Y-86540000D02*
X84655000Y-81460000D01*
X84655000Y-86540000D02*
X80845000Y-86540000D01*
X84655000Y-81460000D02*
X80845000Y-81460000D01*
X89350000Y-87800000D02*
X90050000Y-87800000D01*
X90050000Y-89000000D02*
X89350000Y-89000000D01*
X89350000Y-78900000D02*
X90050000Y-78900000D01*
X90050000Y-80100000D02*
X89350000Y-80100000D01*
X73950000Y-85200000D02*
X74650000Y-85200000D01*
X74650000Y-86400000D02*
X73950000Y-86400000D01*
X107000000Y-92425000D02*
X108000000Y-92425000D01*
X108000000Y-93775000D02*
X107000000Y-93775000D01*
X107000000Y-94925000D02*
X108000000Y-94925000D01*
X108000000Y-96275000D02*
X107000000Y-96275000D01*
X76600000Y-83925000D02*
X75600000Y-83925000D01*
X75600000Y-82575000D02*
X76600000Y-82575000D01*
X91250000Y-105725000D02*
X87650000Y-105725000D01*
X87650000Y-109175000D02*
X91250000Y-109175000D01*
D14*
X96000000Y-82100000D02*
X96600000Y-82100000D01*
X96600000Y-82100000D02*
X96600000Y-85700000D01*
X96600000Y-85700000D02*
X96000000Y-85700000D01*
X90500000Y-82100000D02*
X94300000Y-82100000D01*
X88200000Y-83400000D02*
X88200000Y-82100000D01*
X88200000Y-85700000D02*
X88200000Y-84400000D01*
X88200000Y-82100000D02*
X88800000Y-82100000D01*
X88200000Y-85700000D02*
X88800000Y-85700000D01*
X94300000Y-85700000D02*
X90500000Y-85700000D01*
X88200000Y-84400000D02*
G75*
G03X88200000Y-83400000I0J500000D01*
G01*
X86290000Y-70200000D02*
X78940000Y-70200000D01*
X78940000Y-70200000D02*
X78940000Y-63600000D01*
X78940000Y-63600000D02*
X86290000Y-63600000D01*
X81600000Y-63090000D02*
X81600000Y-61820000D01*
X82230000Y-62450000D02*
X80970000Y-62450000D01*
X86305143Y-70248030D02*
G75*
G03X86290000Y-63600000I10534857J3348030D01*
G01*
D13*
X73002381Y-109988095D02*
X72002381Y-109988095D01*
X72002381Y-109750000D01*
X72050000Y-109607142D01*
X72145238Y-109511904D01*
X72240476Y-109464285D01*
X72430952Y-109416666D01*
X72573810Y-109416666D01*
X72764286Y-109464285D01*
X72859524Y-109511904D01*
X72954762Y-109607142D01*
X73002381Y-109750000D01*
X73002381Y-109988095D01*
X73002381Y-108464285D02*
X73002381Y-109035714D01*
X73002381Y-108750000D02*
X72002381Y-108750000D01*
X72145238Y-108845238D01*
X72240476Y-108940476D01*
X72288095Y-109035714D01*
X67266667Y-60952381D02*
X66933333Y-60476190D01*
X66695238Y-60952381D02*
X66695238Y-59952381D01*
X67076191Y-59952381D01*
X67171429Y-60000000D01*
X67219048Y-60047619D01*
X67266667Y-60142857D01*
X67266667Y-60285714D01*
X67219048Y-60380952D01*
X67171429Y-60428571D01*
X67076191Y-60476190D01*
X66695238Y-60476190D01*
X67695238Y-60428571D02*
X68028572Y-60428571D01*
X68171429Y-60952381D02*
X67695238Y-60952381D01*
X67695238Y-59952381D01*
X68171429Y-59952381D01*
X68933334Y-60428571D02*
X68600000Y-60428571D01*
X68600000Y-60952381D02*
X68600000Y-59952381D01*
X69076191Y-59952381D01*
X69600000Y-59952381D02*
X69600000Y-60190476D01*
X69361905Y-60095238D02*
X69600000Y-60190476D01*
X69838096Y-60095238D01*
X69457143Y-60380952D02*
X69600000Y-60190476D01*
X69742858Y-60380952D01*
X70361905Y-59952381D02*
X70361905Y-60190476D01*
X70123810Y-60095238D02*
X70361905Y-60190476D01*
X70600001Y-60095238D01*
X70219048Y-60380952D02*
X70361905Y-60190476D01*
X70504763Y-60380952D01*
X116366667Y-61052381D02*
X116033333Y-60576190D01*
X115795238Y-61052381D02*
X115795238Y-60052381D01*
X116176191Y-60052381D01*
X116271429Y-60100000D01*
X116319048Y-60147619D01*
X116366667Y-60242857D01*
X116366667Y-60385714D01*
X116319048Y-60480952D01*
X116271429Y-60528571D01*
X116176191Y-60576190D01*
X115795238Y-60576190D01*
X116795238Y-60528571D02*
X117128572Y-60528571D01*
X117271429Y-61052381D02*
X116795238Y-61052381D01*
X116795238Y-60052381D01*
X117271429Y-60052381D01*
X118033334Y-60528571D02*
X117700000Y-60528571D01*
X117700000Y-61052381D02*
X117700000Y-60052381D01*
X118176191Y-60052381D01*
X118700000Y-60052381D02*
X118700000Y-60290476D01*
X118461905Y-60195238D02*
X118700000Y-60290476D01*
X118938096Y-60195238D01*
X118557143Y-60480952D02*
X118700000Y-60290476D01*
X118842858Y-60480952D01*
X119461905Y-60052381D02*
X119461905Y-60290476D01*
X119223810Y-60195238D02*
X119461905Y-60290476D01*
X119700001Y-60195238D01*
X119319048Y-60480952D02*
X119461905Y-60290476D01*
X119604763Y-60480952D01*
X67466667Y-118852381D02*
X67133333Y-118376190D01*
X66895238Y-118852381D02*
X66895238Y-117852381D01*
X67276191Y-117852381D01*
X67371429Y-117900000D01*
X67419048Y-117947619D01*
X67466667Y-118042857D01*
X67466667Y-118185714D01*
X67419048Y-118280952D01*
X67371429Y-118328571D01*
X67276191Y-118376190D01*
X66895238Y-118376190D01*
X67895238Y-118328571D02*
X68228572Y-118328571D01*
X68371429Y-118852381D02*
X67895238Y-118852381D01*
X67895238Y-117852381D01*
X68371429Y-117852381D01*
X69133334Y-118328571D02*
X68800000Y-118328571D01*
X68800000Y-118852381D02*
X68800000Y-117852381D01*
X69276191Y-117852381D01*
X69800000Y-117852381D02*
X69800000Y-118090476D01*
X69561905Y-117995238D02*
X69800000Y-118090476D01*
X70038096Y-117995238D01*
X69657143Y-118280952D02*
X69800000Y-118090476D01*
X69942858Y-118280952D01*
X70561905Y-117852381D02*
X70561905Y-118090476D01*
X70323810Y-117995238D02*
X70561905Y-118090476D01*
X70800001Y-117995238D01*
X70419048Y-118280952D02*
X70561905Y-118090476D01*
X70704763Y-118280952D01*
X116366667Y-118952381D02*
X116033333Y-118476190D01*
X115795238Y-118952381D02*
X115795238Y-117952381D01*
X116176191Y-117952381D01*
X116271429Y-118000000D01*
X116319048Y-118047619D01*
X116366667Y-118142857D01*
X116366667Y-118285714D01*
X116319048Y-118380952D01*
X116271429Y-118428571D01*
X116176191Y-118476190D01*
X115795238Y-118476190D01*
X116795238Y-118428571D02*
X117128572Y-118428571D01*
X117271429Y-118952381D02*
X116795238Y-118952381D01*
X116795238Y-117952381D01*
X117271429Y-117952381D01*
X118033334Y-118428571D02*
X117700000Y-118428571D01*
X117700000Y-118952381D02*
X117700000Y-117952381D01*
X118176191Y-117952381D01*
X118700000Y-117952381D02*
X118700000Y-118190476D01*
X118461905Y-118095238D02*
X118700000Y-118190476D01*
X118938096Y-118095238D01*
X118557143Y-118380952D02*
X118700000Y-118190476D01*
X118842858Y-118380952D01*
X119461905Y-117952381D02*
X119461905Y-118190476D01*
X119223810Y-118095238D02*
X119461905Y-118190476D01*
X119700001Y-118095238D01*
X119319048Y-118380952D02*
X119461905Y-118190476D01*
X119604763Y-118380952D01*
X80957143Y-102316666D02*
X81004762Y-102364285D01*
X81052381Y-102507142D01*
X81052381Y-102602380D01*
X81004762Y-102745238D01*
X80909524Y-102840476D01*
X80814286Y-102888095D01*
X80623810Y-102935714D01*
X80480952Y-102935714D01*
X80290476Y-102888095D01*
X80195238Y-102840476D01*
X80100000Y-102745238D01*
X80052381Y-102602380D01*
X80052381Y-102507142D01*
X80100000Y-102364285D01*
X80147619Y-102316666D01*
X80147619Y-101935714D02*
X80100000Y-101888095D01*
X80052381Y-101792857D01*
X80052381Y-101554761D01*
X80100000Y-101459523D01*
X80147619Y-101411904D01*
X80242857Y-101364285D01*
X80338095Y-101364285D01*
X80480952Y-101411904D01*
X81052381Y-101983333D01*
X81052381Y-101364285D01*
X92052381Y-114838095D02*
X91052381Y-114838095D01*
X91052381Y-114457142D01*
X91100000Y-114361904D01*
X91147619Y-114314285D01*
X91242857Y-114266666D01*
X91385714Y-114266666D01*
X91480952Y-114314285D01*
X91528571Y-114361904D01*
X91576190Y-114457142D01*
X91576190Y-114838095D01*
X92052381Y-113314285D02*
X92052381Y-113885714D01*
X92052381Y-113600000D02*
X91052381Y-113600000D01*
X91195238Y-113695238D01*
X91290476Y-113790476D01*
X91338095Y-113885714D01*
X111852381Y-115038095D02*
X110852381Y-115038095D01*
X110852381Y-114657142D01*
X110900000Y-114561904D01*
X110947619Y-114514285D01*
X111042857Y-114466666D01*
X111185714Y-114466666D01*
X111280952Y-114514285D01*
X111328571Y-114561904D01*
X111376190Y-114657142D01*
X111376190Y-115038095D01*
X110947619Y-114085714D02*
X110900000Y-114038095D01*
X110852381Y-113942857D01*
X110852381Y-113704761D01*
X110900000Y-113609523D01*
X110947619Y-113561904D01*
X111042857Y-113514285D01*
X111138095Y-113514285D01*
X111280952Y-113561904D01*
X111852381Y-114133333D01*
X111852381Y-113514285D01*
X113661905Y-63852381D02*
X113661905Y-62852381D01*
X114042858Y-62852381D01*
X114138096Y-62900000D01*
X114185715Y-62947619D01*
X114233334Y-63042857D01*
X114233334Y-63185714D01*
X114185715Y-63280952D01*
X114138096Y-63328571D01*
X114042858Y-63376190D01*
X113661905Y-63376190D01*
X114566667Y-62852381D02*
X115185715Y-62852381D01*
X114852381Y-63233333D01*
X114995239Y-63233333D01*
X115090477Y-63280952D01*
X115138096Y-63328571D01*
X115185715Y-63423810D01*
X115185715Y-63661905D01*
X115138096Y-63757143D01*
X115090477Y-63804762D01*
X114995239Y-63852381D01*
X114709524Y-63852381D01*
X114614286Y-63804762D01*
X114566667Y-63757143D01*
X113561905Y-77852381D02*
X113561905Y-76852381D01*
X113942858Y-76852381D01*
X114038096Y-76900000D01*
X114085715Y-76947619D01*
X114133334Y-77042857D01*
X114133334Y-77185714D01*
X114085715Y-77280952D01*
X114038096Y-77328571D01*
X113942858Y-77376190D01*
X113561905Y-77376190D01*
X114990477Y-77185714D02*
X114990477Y-77852381D01*
X114752381Y-76804762D02*
X114514286Y-77519048D01*
X115133334Y-77519048D01*
X113661905Y-91752381D02*
X113661905Y-90752381D01*
X114042858Y-90752381D01*
X114138096Y-90800000D01*
X114185715Y-90847619D01*
X114233334Y-90942857D01*
X114233334Y-91085714D01*
X114185715Y-91180952D01*
X114138096Y-91228571D01*
X114042858Y-91276190D01*
X113661905Y-91276190D01*
X115138096Y-90752381D02*
X114661905Y-90752381D01*
X114614286Y-91228571D01*
X114661905Y-91180952D01*
X114757143Y-91133333D01*
X114995239Y-91133333D01*
X115090477Y-91180952D01*
X115138096Y-91228571D01*
X115185715Y-91323810D01*
X115185715Y-91561905D01*
X115138096Y-91657143D01*
X115090477Y-91704762D01*
X114995239Y-91752381D01*
X114757143Y-91752381D01*
X114661905Y-91704762D01*
X114614286Y-91657143D01*
X74508095Y-55552381D02*
X75079524Y-55552381D01*
X74793809Y-56552381D02*
X74793809Y-55552381D01*
X75412857Y-56552381D02*
X75412857Y-55552381D01*
X75793810Y-55552381D01*
X75889048Y-55600000D01*
X75936667Y-55647619D01*
X75984286Y-55742857D01*
X75984286Y-55885714D01*
X75936667Y-55980952D01*
X75889048Y-56028571D01*
X75793810Y-56076190D01*
X75412857Y-56076190D01*
X76936667Y-56552381D02*
X76365238Y-56552381D01*
X76650952Y-56552381D02*
X76650952Y-55552381D01*
X76555714Y-55695238D01*
X76460476Y-55790476D01*
X76365238Y-55838095D01*
X110208095Y-104952381D02*
X110779524Y-104952381D01*
X110493809Y-105952381D02*
X110493809Y-104952381D01*
X111112857Y-105952381D02*
X111112857Y-104952381D01*
X111493810Y-104952381D01*
X111589048Y-105000000D01*
X111636667Y-105047619D01*
X111684286Y-105142857D01*
X111684286Y-105285714D01*
X111636667Y-105380952D01*
X111589048Y-105428571D01*
X111493810Y-105476190D01*
X111112857Y-105476190D01*
X112065238Y-105047619D02*
X112112857Y-105000000D01*
X112208095Y-104952381D01*
X112446191Y-104952381D01*
X112541429Y-105000000D01*
X112589048Y-105047619D01*
X112636667Y-105142857D01*
X112636667Y-105238095D01*
X112589048Y-105380952D01*
X112017619Y-105952381D01*
X112636667Y-105952381D01*
X109208095Y-55552381D02*
X109779524Y-55552381D01*
X109493809Y-56552381D02*
X109493809Y-55552381D01*
X110112857Y-56552381D02*
X110112857Y-55552381D01*
X110493810Y-55552381D01*
X110589048Y-55600000D01*
X110636667Y-55647619D01*
X110684286Y-55742857D01*
X110684286Y-55885714D01*
X110636667Y-55980952D01*
X110589048Y-56028571D01*
X110493810Y-56076190D01*
X110112857Y-56076190D01*
X111017619Y-55552381D02*
X111636667Y-55552381D01*
X111303333Y-55933333D01*
X111446191Y-55933333D01*
X111541429Y-55980952D01*
X111589048Y-56028571D01*
X111636667Y-56123810D01*
X111636667Y-56361905D01*
X111589048Y-56457143D01*
X111541429Y-56504762D01*
X111446191Y-56552381D01*
X111160476Y-56552381D01*
X111065238Y-56504762D01*
X111017619Y-56457143D01*
X71838095Y-61852381D02*
X71838095Y-62661905D01*
X71885714Y-62757143D01*
X71933333Y-62804762D01*
X72028571Y-62852381D01*
X72219048Y-62852381D01*
X72314286Y-62804762D01*
X72361905Y-62757143D01*
X72409524Y-62661905D01*
X72409524Y-61852381D01*
X73409524Y-62852381D02*
X72838095Y-62852381D01*
X73123809Y-62852381D02*
X73123809Y-61852381D01*
X73028571Y-61995238D01*
X72933333Y-62090476D01*
X72838095Y-62138095D01*
X82166667Y-104328571D02*
X81833333Y-104328571D01*
X81833333Y-104852381D02*
X81833333Y-103852381D01*
X82309524Y-103852381D01*
X83023810Y-104328571D02*
X83166667Y-104376190D01*
X83214286Y-104423810D01*
X83261905Y-104519048D01*
X83261905Y-104661905D01*
X83214286Y-104757143D01*
X83166667Y-104804762D01*
X83071429Y-104852381D01*
X82690476Y-104852381D01*
X82690476Y-103852381D01*
X83023810Y-103852381D01*
X83119048Y-103900000D01*
X83166667Y-103947619D01*
X83214286Y-104042857D01*
X83214286Y-104138095D01*
X83166667Y-104233333D01*
X83119048Y-104280952D01*
X83023810Y-104328571D01*
X82690476Y-104328571D01*
X84214286Y-104852381D02*
X83642857Y-104852381D01*
X83928571Y-104852381D02*
X83928571Y-103852381D01*
X83833333Y-103995238D01*
X83738095Y-104090476D01*
X83642857Y-104138095D01*
X81438095Y-80152381D02*
X81438095Y-80961905D01*
X81485714Y-81057143D01*
X81533333Y-81104762D01*
X81628571Y-81152381D01*
X81819048Y-81152381D01*
X81914286Y-81104762D01*
X81961905Y-81057143D01*
X82009524Y-80961905D01*
X82009524Y-80152381D01*
X82438095Y-80247619D02*
X82485714Y-80200000D01*
X82580952Y-80152381D01*
X82819048Y-80152381D01*
X82914286Y-80200000D01*
X82961905Y-80247619D01*
X83009524Y-80342857D01*
X83009524Y-80438095D01*
X82961905Y-80580952D01*
X82390476Y-81152381D01*
X83009524Y-81152381D01*
X89533334Y-87457143D02*
X89485715Y-87504762D01*
X89342858Y-87552381D01*
X89247620Y-87552381D01*
X89104762Y-87504762D01*
X89009524Y-87409524D01*
X88961905Y-87314286D01*
X88914286Y-87123810D01*
X88914286Y-86980952D01*
X88961905Y-86790476D01*
X89009524Y-86695238D01*
X89104762Y-86600000D01*
X89247620Y-86552381D01*
X89342858Y-86552381D01*
X89485715Y-86600000D01*
X89533334Y-86647619D01*
X89866667Y-86552381D02*
X90485715Y-86552381D01*
X90152381Y-86933333D01*
X90295239Y-86933333D01*
X90390477Y-86980952D01*
X90438096Y-87028571D01*
X90485715Y-87123810D01*
X90485715Y-87361905D01*
X90438096Y-87457143D01*
X90390477Y-87504762D01*
X90295239Y-87552381D01*
X90009524Y-87552381D01*
X89914286Y-87504762D01*
X89866667Y-87457143D01*
X89533334Y-78457143D02*
X89485715Y-78504762D01*
X89342858Y-78552381D01*
X89247620Y-78552381D01*
X89104762Y-78504762D01*
X89009524Y-78409524D01*
X88961905Y-78314286D01*
X88914286Y-78123810D01*
X88914286Y-77980952D01*
X88961905Y-77790476D01*
X89009524Y-77695238D01*
X89104762Y-77600000D01*
X89247620Y-77552381D01*
X89342858Y-77552381D01*
X89485715Y-77600000D01*
X89533334Y-77647619D01*
X90390477Y-77885714D02*
X90390477Y-78552381D01*
X90152381Y-77504762D02*
X89914286Y-78219048D01*
X90533334Y-78219048D01*
X73833334Y-84557143D02*
X73785715Y-84604762D01*
X73642858Y-84652381D01*
X73547620Y-84652381D01*
X73404762Y-84604762D01*
X73309524Y-84509524D01*
X73261905Y-84414286D01*
X73214286Y-84223810D01*
X73214286Y-84080952D01*
X73261905Y-83890476D01*
X73309524Y-83795238D01*
X73404762Y-83700000D01*
X73547620Y-83652381D01*
X73642858Y-83652381D01*
X73785715Y-83700000D01*
X73833334Y-83747619D01*
X74738096Y-83652381D02*
X74261905Y-83652381D01*
X74214286Y-84128571D01*
X74261905Y-84080952D01*
X74357143Y-84033333D01*
X74595239Y-84033333D01*
X74690477Y-84080952D01*
X74738096Y-84128571D01*
X74785715Y-84223810D01*
X74785715Y-84461905D01*
X74738096Y-84557143D01*
X74690477Y-84604762D01*
X74595239Y-84652381D01*
X74357143Y-84652381D01*
X74261905Y-84604762D01*
X74214286Y-84557143D01*
X107233334Y-91952381D02*
X106900000Y-91476190D01*
X106661905Y-91952381D02*
X106661905Y-90952381D01*
X107042858Y-90952381D01*
X107138096Y-91000000D01*
X107185715Y-91047619D01*
X107233334Y-91142857D01*
X107233334Y-91285714D01*
X107185715Y-91380952D01*
X107138096Y-91428571D01*
X107042858Y-91476190D01*
X106661905Y-91476190D01*
X108185715Y-91952381D02*
X107614286Y-91952381D01*
X107900000Y-91952381D02*
X107900000Y-90952381D01*
X107804762Y-91095238D01*
X107709524Y-91190476D01*
X107614286Y-91238095D01*
X107233334Y-94652381D02*
X106900000Y-94176190D01*
X106661905Y-94652381D02*
X106661905Y-93652381D01*
X107042858Y-93652381D01*
X107138096Y-93700000D01*
X107185715Y-93747619D01*
X107233334Y-93842857D01*
X107233334Y-93985714D01*
X107185715Y-94080952D01*
X107138096Y-94128571D01*
X107042858Y-94176190D01*
X106661905Y-94176190D01*
X107614286Y-93747619D02*
X107661905Y-93700000D01*
X107757143Y-93652381D01*
X107995239Y-93652381D01*
X108090477Y-93700000D01*
X108138096Y-93747619D01*
X108185715Y-93842857D01*
X108185715Y-93938095D01*
X108138096Y-94080952D01*
X107566667Y-94652381D01*
X108185715Y-94652381D01*
X75933334Y-81802381D02*
X75600000Y-81326190D01*
X75361905Y-81802381D02*
X75361905Y-80802381D01*
X75742858Y-80802381D01*
X75838096Y-80850000D01*
X75885715Y-80897619D01*
X75933334Y-80992857D01*
X75933334Y-81135714D01*
X75885715Y-81230952D01*
X75838096Y-81278571D01*
X75742858Y-81326190D01*
X75361905Y-81326190D01*
X76266667Y-80802381D02*
X76885715Y-80802381D01*
X76552381Y-81183333D01*
X76695239Y-81183333D01*
X76790477Y-81230952D01*
X76838096Y-81278571D01*
X76885715Y-81373810D01*
X76885715Y-81611905D01*
X76838096Y-81707143D01*
X76790477Y-81754762D01*
X76695239Y-81802381D01*
X76409524Y-81802381D01*
X76314286Y-81754762D01*
X76266667Y-81707143D01*
X89283334Y-104807143D02*
X89235715Y-104854762D01*
X89092858Y-104902381D01*
X88997620Y-104902381D01*
X88854762Y-104854762D01*
X88759524Y-104759524D01*
X88711905Y-104664286D01*
X88664286Y-104473810D01*
X88664286Y-104330952D01*
X88711905Y-104140476D01*
X88759524Y-104045238D01*
X88854762Y-103950000D01*
X88997620Y-103902381D01*
X89092858Y-103902381D01*
X89235715Y-103950000D01*
X89283334Y-103997619D01*
X90235715Y-104902381D02*
X89664286Y-104902381D01*
X89950000Y-104902381D02*
X89950000Y-103902381D01*
X89854762Y-104045238D01*
X89759524Y-104140476D01*
X89664286Y-104188095D01*
X91590476Y-79802381D02*
X92257143Y-80802381D01*
X92257143Y-79802381D02*
X91590476Y-80802381D01*
X93161905Y-80802381D02*
X92590476Y-80802381D01*
X92876190Y-80802381D02*
X92876190Y-79802381D01*
X92780952Y-79945238D01*
X92685714Y-80040476D01*
X92590476Y-80088095D01*
X80014286Y-72128571D02*
X80157143Y-72176190D01*
X80204762Y-72223810D01*
X80252381Y-72319048D01*
X80252381Y-72461905D01*
X80204762Y-72557143D01*
X80157143Y-72604762D01*
X80061905Y-72652381D01*
X79680952Y-72652381D01*
X79680952Y-71652381D01*
X80014286Y-71652381D01*
X80109524Y-71700000D01*
X80157143Y-71747619D01*
X80204762Y-71842857D01*
X80204762Y-71938095D01*
X80157143Y-72033333D01*
X80109524Y-72080952D01*
X80014286Y-72128571D01*
X79680952Y-72128571D01*
X80538095Y-71652381D02*
X81109524Y-71652381D01*
X80823809Y-72652381D02*
X80823809Y-71652381D01*
X81966667Y-72652381D02*
X81395238Y-72652381D01*
X81680952Y-72652381D02*
X81680952Y-71652381D01*
X81585714Y-71795238D01*
X81490476Y-71890476D01*
X81395238Y-71938095D01*
M02*
