G04 #@! TF.FileFunction,Soldermask,Top*
%FSLAX46Y46*%
G04 Gerber Fmt 4.6, Leading zero omitted, Abs format (unit mm)*
G04 Created by KiCad (PCBNEW 4.0.7-e2-6376~58~ubuntu17.04.1) date Sat Sep 30 09:18:45 2017*
%MOMM*%
%LPD*%
G01*
G04 APERTURE LIST*
%ADD10C,0.100000*%
%ADD11R,3.600000X3.000000*%
%ADD12C,6.400000*%
%ADD13R,1.650000X1.400000*%
%ADD14R,2.200000X4.000000*%
%ADD15O,2.200000X4.000000*%
%ADD16R,1.750000X1.750000*%
%ADD17C,1.750000*%
%ADD18R,2.432000X2.127200*%
%ADD19O,2.432000X2.127200*%
%ADD20C,1.800000*%
%ADD21R,2.127200X2.127200*%
%ADD22O,2.127200X2.127200*%
%ADD23R,1.300000X2.100000*%
%ADD24O,1.873200X1.009600*%
%ADD25R,1.200000X1.150000*%
%ADD26R,0.900000X1.300000*%
%ADD27R,1.400000X3.400000*%
%ADD28R,1.700000X2.300000*%
%ADD29C,2.690000*%
G04 APERTURE END LIST*
D10*
D11*
X76750000Y-105650000D03*
X76750000Y-112850000D03*
D12*
X68500000Y-58500000D03*
X117500000Y-58500000D03*
X68500000Y-116500000D03*
X117500000Y-116500000D03*
D13*
X82700000Y-103150000D03*
X82700000Y-101150000D03*
D14*
X83750000Y-111750000D03*
D15*
X87560000Y-111750000D03*
D16*
X108900000Y-114500000D03*
D17*
X106900000Y-114500000D03*
X104900000Y-114500000D03*
X102900000Y-114500000D03*
X100900000Y-114500000D03*
X98900000Y-114500000D03*
X96900000Y-114500000D03*
D18*
X115000000Y-65922000D03*
D19*
X115000000Y-68462000D03*
X115000000Y-71002000D03*
X115000000Y-73542000D03*
D18*
X115000000Y-79892000D03*
D19*
X115000000Y-82432000D03*
X115000000Y-84972000D03*
X115000000Y-87512000D03*
D18*
X115000000Y-93862000D03*
D19*
X115000000Y-96402000D03*
X115000000Y-98942000D03*
X115000000Y-101482000D03*
D20*
X74500000Y-58100000D03*
X77040000Y-58100000D03*
X110200000Y-107500000D03*
X112740000Y-107500000D03*
X109200000Y-58100000D03*
X111740000Y-58100000D03*
D21*
X69826000Y-111650000D03*
D22*
X67286000Y-111650000D03*
X69826000Y-109110000D03*
X67286000Y-109110000D03*
X69826000Y-106570000D03*
X67286000Y-106570000D03*
X69826000Y-104030000D03*
X67286000Y-104030000D03*
X69826000Y-101490000D03*
X67286000Y-101490000D03*
X69826000Y-98950000D03*
X67286000Y-98950000D03*
X69826000Y-96410000D03*
X67286000Y-96410000D03*
X69826000Y-93870000D03*
X67286000Y-93870000D03*
X69826000Y-91330000D03*
X67286000Y-91330000D03*
X69826000Y-88790000D03*
X67286000Y-88790000D03*
X69826000Y-86250000D03*
X67286000Y-86250000D03*
X69826000Y-83710000D03*
X67286000Y-83710000D03*
X69826000Y-81170000D03*
X67286000Y-81170000D03*
X69826000Y-78630000D03*
X67286000Y-78630000D03*
X69826000Y-76090000D03*
X67286000Y-76090000D03*
X69826000Y-73550000D03*
X67286000Y-73550000D03*
X69826000Y-71010000D03*
X67286000Y-71010000D03*
X69826000Y-68470000D03*
X67286000Y-68470000D03*
X69826000Y-65930000D03*
X67286000Y-65930000D03*
X69826000Y-63390000D03*
X67286000Y-63390000D03*
D23*
X81800000Y-106250000D03*
X84700000Y-106250000D03*
D24*
X85544000Y-85905000D03*
X85544000Y-84635000D03*
X85544000Y-83365000D03*
X85544000Y-82095000D03*
X79956000Y-82095000D03*
X79956000Y-83365000D03*
X79956000Y-84635000D03*
X79956000Y-85905000D03*
D25*
X88950000Y-88400000D03*
X90450000Y-88400000D03*
X88950000Y-79500000D03*
X90450000Y-79500000D03*
X73550000Y-85800000D03*
X75050000Y-85800000D03*
D26*
X108250000Y-93100000D03*
X106750000Y-93100000D03*
X108250000Y-95600000D03*
X106750000Y-95600000D03*
X75350000Y-83250000D03*
X76850000Y-83250000D03*
D27*
X87150000Y-107450000D03*
X91750000Y-107450000D03*
D28*
X89650000Y-85500000D03*
X95150000Y-85500000D03*
X95150000Y-82300000D03*
X89650000Y-82300000D03*
D29*
X104460000Y-66900000D03*
X81600000Y-66900000D03*
M02*
