G04 #@! TF.FileFunction,Copper,L2,Bot,Signal*
%FSLAX46Y46*%
G04 Gerber Fmt 4.6, Leading zero omitted, Abs format (unit mm)*
G04 Created by KiCad (PCBNEW 4.0.7-e2-6376~58~ubuntu17.04.1) date Sat Sep 30 09:18:45 2017*
%MOMM*%
%LPD*%
G01*
G04 APERTURE LIST*
%ADD10C,0.100000*%
%ADD11C,6.000000*%
%ADD12R,1.800000X3.600000*%
%ADD13O,1.800000X3.600000*%
%ADD14R,1.350000X1.350000*%
%ADD15C,1.350000*%
%ADD16R,2.032000X1.727200*%
%ADD17O,2.032000X1.727200*%
%ADD18C,1.400000*%
%ADD19R,1.727200X1.727200*%
%ADD20O,1.727200X1.727200*%
%ADD21C,2.290000*%
%ADD22C,0.700000*%
%ADD23C,0.600000*%
%ADD24C,0.500000*%
%ADD25C,0.250000*%
%ADD26C,0.254000*%
G04 APERTURE END LIST*
D10*
D11*
X68500000Y-58500000D03*
X117500000Y-58500000D03*
X68500000Y-116500000D03*
X117500000Y-116500000D03*
D12*
X83750000Y-111750000D03*
D13*
X87560000Y-111750000D03*
D14*
X108900000Y-114500000D03*
D15*
X106900000Y-114500000D03*
X104900000Y-114500000D03*
X102900000Y-114500000D03*
X100900000Y-114500000D03*
X98900000Y-114500000D03*
X96900000Y-114500000D03*
D16*
X115000000Y-65922000D03*
D17*
X115000000Y-68462000D03*
X115000000Y-71002000D03*
X115000000Y-73542000D03*
D16*
X115000000Y-79892000D03*
D17*
X115000000Y-82432000D03*
X115000000Y-84972000D03*
X115000000Y-87512000D03*
D16*
X115000000Y-93862000D03*
D17*
X115000000Y-96402000D03*
X115000000Y-98942000D03*
X115000000Y-101482000D03*
D18*
X74500000Y-58100000D03*
X77040000Y-58100000D03*
X110200000Y-107500000D03*
X112740000Y-107500000D03*
X109200000Y-58100000D03*
X111740000Y-58100000D03*
D19*
X69826000Y-111650000D03*
D20*
X67286000Y-111650000D03*
X69826000Y-109110000D03*
X67286000Y-109110000D03*
X69826000Y-106570000D03*
X67286000Y-106570000D03*
X69826000Y-104030000D03*
X67286000Y-104030000D03*
X69826000Y-101490000D03*
X67286000Y-101490000D03*
X69826000Y-98950000D03*
X67286000Y-98950000D03*
X69826000Y-96410000D03*
X67286000Y-96410000D03*
X69826000Y-93870000D03*
X67286000Y-93870000D03*
X69826000Y-91330000D03*
X67286000Y-91330000D03*
X69826000Y-88790000D03*
X67286000Y-88790000D03*
X69826000Y-86250000D03*
X67286000Y-86250000D03*
X69826000Y-83710000D03*
X67286000Y-83710000D03*
X69826000Y-81170000D03*
X67286000Y-81170000D03*
X69826000Y-78630000D03*
X67286000Y-78630000D03*
X69826000Y-76090000D03*
X67286000Y-76090000D03*
X69826000Y-73550000D03*
X67286000Y-73550000D03*
X69826000Y-71010000D03*
X67286000Y-71010000D03*
X69826000Y-68470000D03*
X67286000Y-68470000D03*
X69826000Y-65930000D03*
X67286000Y-65930000D03*
X69826000Y-63390000D03*
X67286000Y-63390000D03*
D21*
X104460000Y-66900000D03*
X81600000Y-66900000D03*
D22*
X76800000Y-90400000D03*
X78800000Y-91400000D03*
D23*
X72400000Y-89700000D03*
X105500000Y-93300000D03*
X100900000Y-93400000D03*
X104700000Y-94100000D03*
X101500000Y-94000000D03*
X72600000Y-101350000D03*
D22*
X108800000Y-66900000D03*
X76700000Y-85900000D03*
X99400000Y-85500000D03*
X101100000Y-79400000D03*
X82650000Y-99250000D03*
X85550000Y-80100000D03*
X112300000Y-87550000D03*
X91750000Y-111300000D03*
X76750000Y-102750000D03*
X112500000Y-73550000D03*
D24*
X109200000Y-58100000D02*
X111740000Y-58100000D01*
X111740000Y-58100000D02*
X116390000Y-62750000D01*
X116390000Y-62750000D02*
X116500000Y-62750000D01*
X106900000Y-114500000D02*
X106700000Y-114500000D01*
X106700000Y-114500000D02*
X101950000Y-119250000D01*
X101950000Y-119250000D02*
X77300000Y-119250000D01*
X106900000Y-114500000D02*
X106900000Y-112900000D01*
X117400000Y-87372000D02*
X115000000Y-84972000D01*
X117400000Y-105850000D02*
X117400000Y-87372000D01*
X113250000Y-110000000D02*
X117400000Y-105850000D01*
X109800000Y-110000000D02*
X113250000Y-110000000D01*
X106900000Y-112900000D02*
X109800000Y-110000000D01*
X77300000Y-119250000D02*
X69826000Y-111776000D01*
X77300000Y-119250000D02*
X100800000Y-119200000D01*
X69826000Y-111650000D02*
X69826000Y-111776000D01*
D25*
X69826000Y-91330000D02*
X69670000Y-91330000D01*
X69670000Y-91330000D02*
X68550000Y-92450000D01*
X68550000Y-110374000D02*
X69826000Y-111650000D01*
X68550000Y-92450000D02*
X68550000Y-110374000D01*
D24*
X115000000Y-71002000D02*
X115798000Y-71002000D01*
X115798000Y-71002000D02*
X117500000Y-69300000D01*
X117500000Y-63750000D02*
X116500000Y-62750000D01*
X117500000Y-69300000D02*
X117500000Y-63750000D01*
X115000000Y-84972000D02*
X116428000Y-84972000D01*
X117050000Y-73052000D02*
X115000000Y-71002000D01*
X117050000Y-84350000D02*
X117050000Y-73052000D01*
X116428000Y-84972000D02*
X117050000Y-84350000D01*
D25*
X98800000Y-114400000D02*
X98800000Y-104400000D01*
X94330678Y-99930678D02*
X98800000Y-104400000D01*
X94330678Y-99930678D02*
X86283373Y-99930678D01*
X98800000Y-114400000D02*
X98900000Y-114500000D01*
X86095018Y-99704143D02*
X86095018Y-99695018D01*
X86095018Y-99695018D02*
X76800000Y-90400000D01*
X86300955Y-99951824D02*
X86283373Y-99930678D01*
X86283373Y-99930678D02*
X86095018Y-99704143D01*
X86095018Y-99704143D02*
X86050000Y-99650000D01*
X100800000Y-114400000D02*
X100800000Y-105300000D01*
X94439349Y-98939349D02*
X100800000Y-105300000D01*
X94439349Y-98939349D02*
X86400000Y-98939349D01*
X100800000Y-114400000D02*
X100900000Y-114500000D01*
X86400000Y-98900000D02*
X86300000Y-98900000D01*
X86300000Y-98900000D02*
X78800000Y-91400000D01*
X86400000Y-98939349D02*
X86400000Y-98900000D01*
X86361111Y-98939349D02*
X86400000Y-98939349D01*
X86386699Y-98964638D02*
X86361111Y-98939349D01*
X75900000Y-90600000D02*
X75000000Y-89700000D01*
X86325000Y-101025000D02*
X75900000Y-90600000D01*
X72300000Y-89700000D02*
X72400000Y-89700000D01*
X75000000Y-89700000D02*
X72300000Y-89700000D01*
X96900000Y-103500000D02*
X94400000Y-101000000D01*
X96900000Y-114500000D02*
X96900000Y-103500000D01*
X94400000Y-101000000D02*
X94200000Y-101000000D01*
X67286000Y-83710000D02*
X67286000Y-83736000D01*
X87275000Y-101025000D02*
X86325000Y-101025000D01*
X94200000Y-101000000D02*
X87300000Y-101000000D01*
X87275000Y-101025000D02*
X87300000Y-101000000D01*
X86325000Y-101025000D02*
X86350000Y-101050000D01*
D24*
X115000000Y-98942000D02*
X114958000Y-98942000D01*
X114958000Y-98942000D02*
X112740000Y-101160000D01*
X112740000Y-104960000D02*
X112740000Y-107500000D01*
X112740000Y-101160000D02*
X112740000Y-104960000D01*
X112740000Y-107500000D02*
X110200000Y-107500000D01*
X115000000Y-98942000D02*
X115000000Y-99100000D01*
D25*
X105500000Y-93300000D02*
X101800000Y-93300000D01*
X101800000Y-93300000D02*
X101700000Y-93300000D01*
X101000000Y-93300000D02*
X101700000Y-93300000D01*
X101700000Y-93300000D02*
X101800000Y-93300000D01*
X100900000Y-93400000D02*
X101000000Y-93300000D01*
X104700000Y-94100000D02*
X104600000Y-94000000D01*
X104600000Y-94000000D02*
X101500000Y-94000000D01*
X71350000Y-100100000D02*
X72600000Y-101350000D01*
X71350000Y-95050000D02*
X71350000Y-100100000D01*
X70170000Y-93870000D02*
X71350000Y-95050000D01*
X69826000Y-93870000D02*
X70170000Y-93870000D01*
X104800000Y-114400000D02*
X104800000Y-106950000D01*
X86550000Y-97200000D02*
X77650000Y-88300000D01*
X77650000Y-88300000D02*
X74400000Y-88300000D01*
X74400000Y-88300000D02*
X71500000Y-85400000D01*
X71500000Y-85400000D02*
X71500000Y-85384000D01*
X95050000Y-97200000D02*
X87000000Y-97200000D01*
X104800000Y-106950000D02*
X95050000Y-97200000D01*
X87000000Y-97200000D02*
X86550000Y-97200000D01*
X104800000Y-114400000D02*
X104900000Y-114500000D01*
X71666000Y-85550000D02*
X71500000Y-85384000D01*
X71500000Y-85384000D02*
X69826000Y-83710000D01*
X102800000Y-114400000D02*
X102800000Y-106050000D01*
X94850000Y-98100000D02*
X102800000Y-106050000D01*
X94850000Y-98100000D02*
X86800000Y-98100000D01*
X102800000Y-114400000D02*
X102900000Y-114500000D01*
X69936000Y-88900000D02*
X75200000Y-88900000D01*
X86600000Y-98100000D02*
X86800000Y-98100000D01*
X77400000Y-88900000D02*
X75200000Y-88900000D01*
X86600000Y-98100000D02*
X77400000Y-88900000D01*
X69936000Y-88900000D02*
X69826000Y-88790000D01*
X86750000Y-98100000D02*
X86800000Y-98100000D01*
X67286000Y-76090000D02*
X67490000Y-76090000D01*
X67490000Y-76090000D02*
X68600000Y-77200000D01*
X68600000Y-79944000D02*
X69826000Y-81170000D01*
X68600000Y-77200000D02*
X68600000Y-79944000D01*
X67286000Y-76090000D02*
X67286000Y-76114000D01*
D24*
X77040000Y-58100000D02*
X74500000Y-58100000D01*
X74500000Y-58100000D02*
X69826000Y-62774000D01*
X69826000Y-62774000D02*
X69826000Y-63390000D01*
X104460000Y-66900000D02*
X108800000Y-66900000D01*
X67286000Y-96410000D02*
X67286000Y-96514000D01*
X115000000Y-87512000D02*
X112338000Y-87512000D01*
X112338000Y-87512000D02*
X112300000Y-87550000D01*
X69826000Y-63390000D02*
X69840000Y-63390000D01*
X114812000Y-73592000D02*
X112542000Y-73592000D01*
X112542000Y-73592000D02*
X112500000Y-73550000D01*
D26*
G36*
X120290000Y-114149715D02*
X119561751Y-113420194D01*
X118226218Y-112865632D01*
X116780126Y-112864370D01*
X115443628Y-113416600D01*
X114420194Y-114438249D01*
X113865632Y-115773782D01*
X113864370Y-117219874D01*
X114416600Y-118556372D01*
X115148948Y-119290000D01*
X103161580Y-119290000D01*
X106641804Y-115809775D01*
X107159432Y-115810226D01*
X107641086Y-115611211D01*
X107702189Y-115550214D01*
X107865301Y-115713327D01*
X108098690Y-115810000D01*
X108614250Y-115810000D01*
X108773000Y-115651250D01*
X108773000Y-114627000D01*
X109027000Y-114627000D01*
X109027000Y-115651250D01*
X109185750Y-115810000D01*
X109701310Y-115810000D01*
X109934699Y-115713327D01*
X110113327Y-115534698D01*
X110210000Y-115301309D01*
X110210000Y-114785750D01*
X110051250Y-114627000D01*
X109027000Y-114627000D01*
X108773000Y-114627000D01*
X108753000Y-114627000D01*
X108753000Y-114373000D01*
X108773000Y-114373000D01*
X108773000Y-113348750D01*
X109027000Y-113348750D01*
X109027000Y-114373000D01*
X110051250Y-114373000D01*
X110210000Y-114214250D01*
X110210000Y-113698691D01*
X110113327Y-113465302D01*
X109934699Y-113286673D01*
X109701310Y-113190000D01*
X109185750Y-113190000D01*
X109027000Y-113348750D01*
X108773000Y-113348750D01*
X108614250Y-113190000D01*
X108098690Y-113190000D01*
X107865301Y-113286673D01*
X107785000Y-113366974D01*
X107785000Y-113266580D01*
X110166579Y-110885000D01*
X113249995Y-110885000D01*
X113250000Y-110885001D01*
X113532484Y-110828810D01*
X113588675Y-110817633D01*
X113875790Y-110625790D01*
X118025787Y-106475792D01*
X118025790Y-106475790D01*
X118217633Y-106188675D01*
X118222388Y-106164769D01*
X118285001Y-105850000D01*
X118285000Y-105849995D01*
X118285000Y-87372005D01*
X118285001Y-87372000D01*
X118217634Y-87033326D01*
X118153975Y-86938054D01*
X118025790Y-86746210D01*
X118025787Y-86746208D01*
X116948033Y-85668454D01*
X117053790Y-85597790D01*
X117675787Y-84975792D01*
X117675790Y-84975790D01*
X117867633Y-84688675D01*
X117905959Y-84496000D01*
X117935001Y-84350000D01*
X117935000Y-84349995D01*
X117935000Y-73052005D01*
X117935001Y-73052000D01*
X117867633Y-72713326D01*
X117867633Y-72713325D01*
X117675790Y-72426210D01*
X117675787Y-72426208D01*
X116650580Y-71401000D01*
X118125787Y-69925792D01*
X118125790Y-69925790D01*
X118317633Y-69638675D01*
X118385000Y-69300000D01*
X118385000Y-63750005D01*
X118385001Y-63750000D01*
X118317634Y-63411326D01*
X118218526Y-63263000D01*
X118125790Y-63124210D01*
X118125787Y-63124208D01*
X117136264Y-62134684D01*
X118219874Y-62135630D01*
X119556372Y-61583400D01*
X120290000Y-60851052D01*
X120290000Y-114149715D01*
X120290000Y-114149715D01*
G37*
X120290000Y-114149715D02*
X119561751Y-113420194D01*
X118226218Y-112865632D01*
X116780126Y-112864370D01*
X115443628Y-113416600D01*
X114420194Y-114438249D01*
X113865632Y-115773782D01*
X113864370Y-117219874D01*
X114416600Y-118556372D01*
X115148948Y-119290000D01*
X103161580Y-119290000D01*
X106641804Y-115809775D01*
X107159432Y-115810226D01*
X107641086Y-115611211D01*
X107702189Y-115550214D01*
X107865301Y-115713327D01*
X108098690Y-115810000D01*
X108614250Y-115810000D01*
X108773000Y-115651250D01*
X108773000Y-114627000D01*
X109027000Y-114627000D01*
X109027000Y-115651250D01*
X109185750Y-115810000D01*
X109701310Y-115810000D01*
X109934699Y-115713327D01*
X110113327Y-115534698D01*
X110210000Y-115301309D01*
X110210000Y-114785750D01*
X110051250Y-114627000D01*
X109027000Y-114627000D01*
X108773000Y-114627000D01*
X108753000Y-114627000D01*
X108753000Y-114373000D01*
X108773000Y-114373000D01*
X108773000Y-113348750D01*
X109027000Y-113348750D01*
X109027000Y-114373000D01*
X110051250Y-114373000D01*
X110210000Y-114214250D01*
X110210000Y-113698691D01*
X110113327Y-113465302D01*
X109934699Y-113286673D01*
X109701310Y-113190000D01*
X109185750Y-113190000D01*
X109027000Y-113348750D01*
X108773000Y-113348750D01*
X108614250Y-113190000D01*
X108098690Y-113190000D01*
X107865301Y-113286673D01*
X107785000Y-113366974D01*
X107785000Y-113266580D01*
X110166579Y-110885000D01*
X113249995Y-110885000D01*
X113250000Y-110885001D01*
X113532484Y-110828810D01*
X113588675Y-110817633D01*
X113875790Y-110625790D01*
X118025787Y-106475792D01*
X118025790Y-106475790D01*
X118217633Y-106188675D01*
X118222388Y-106164769D01*
X118285001Y-105850000D01*
X118285000Y-105849995D01*
X118285000Y-87372005D01*
X118285001Y-87372000D01*
X118217634Y-87033326D01*
X118153975Y-86938054D01*
X118025790Y-86746210D01*
X118025787Y-86746208D01*
X116948033Y-85668454D01*
X117053790Y-85597790D01*
X117675787Y-84975792D01*
X117675790Y-84975790D01*
X117867633Y-84688675D01*
X117905959Y-84496000D01*
X117935001Y-84350000D01*
X117935000Y-84349995D01*
X117935000Y-73052005D01*
X117935001Y-73052000D01*
X117867633Y-72713326D01*
X117867633Y-72713325D01*
X117675790Y-72426210D01*
X117675787Y-72426208D01*
X116650580Y-71401000D01*
X118125787Y-69925792D01*
X118125790Y-69925790D01*
X118317633Y-69638675D01*
X118385000Y-69300000D01*
X118385000Y-63750005D01*
X118385001Y-63750000D01*
X118317634Y-63411326D01*
X118218526Y-63263000D01*
X118125790Y-63124210D01*
X118125787Y-63124208D01*
X117136264Y-62134684D01*
X118219874Y-62135630D01*
X119556372Y-61583400D01*
X120290000Y-60851052D01*
X120290000Y-114149715D01*
G36*
X71464838Y-89885167D02*
X71606883Y-90228943D01*
X71869673Y-90492192D01*
X72213201Y-90634838D01*
X72585167Y-90635162D01*
X72928943Y-90493117D01*
X72962118Y-90460000D01*
X74685198Y-90460000D01*
X85812599Y-101587401D01*
X86059160Y-101752148D01*
X86350000Y-101810000D01*
X86475682Y-101785000D01*
X87275000Y-101785000D01*
X87400682Y-101760000D01*
X94085198Y-101760000D01*
X96140000Y-103814802D01*
X96140000Y-113407670D01*
X95790084Y-113756976D01*
X95590228Y-114238282D01*
X95589774Y-114759432D01*
X95788789Y-115241086D01*
X96156976Y-115609916D01*
X96638282Y-115809772D01*
X97159432Y-115810226D01*
X97641086Y-115611211D01*
X97900129Y-115352620D01*
X98156976Y-115609916D01*
X98638282Y-115809772D01*
X99159432Y-115810226D01*
X99641086Y-115611211D01*
X99900129Y-115352620D01*
X100156976Y-115609916D01*
X100638282Y-115809772D01*
X101159432Y-115810226D01*
X101641086Y-115611211D01*
X101900129Y-115352620D01*
X102156976Y-115609916D01*
X102638282Y-115809772D01*
X103159432Y-115810226D01*
X103641086Y-115611211D01*
X103900129Y-115352620D01*
X104156976Y-115609916D01*
X104285243Y-115663177D01*
X101583420Y-118365000D01*
X101052298Y-118365000D01*
X100798117Y-118315002D01*
X77665799Y-118364220D01*
X71337040Y-112035460D01*
X71337040Y-110786400D01*
X71292762Y-110551083D01*
X71153690Y-110334959D01*
X70941490Y-110189969D01*
X70897869Y-110181136D01*
X70915029Y-110169670D01*
X71061807Y-109950000D01*
X82202560Y-109950000D01*
X82202560Y-113550000D01*
X82246838Y-113785317D01*
X82385910Y-114001441D01*
X82598110Y-114146431D01*
X82850000Y-114197440D01*
X84650000Y-114197440D01*
X84885317Y-114153162D01*
X85101441Y-114014090D01*
X85246431Y-113801890D01*
X85297440Y-113550000D01*
X85297440Y-111877000D01*
X86025000Y-111877000D01*
X86025000Y-112777000D01*
X86190446Y-113354752D01*
X86564394Y-113825212D01*
X87089914Y-114116756D01*
X87195260Y-114141036D01*
X87433000Y-114020378D01*
X87433000Y-111877000D01*
X87687000Y-111877000D01*
X87687000Y-114020378D01*
X87924740Y-114141036D01*
X88030086Y-114116756D01*
X88555606Y-113825212D01*
X88929554Y-113354752D01*
X89095000Y-112777000D01*
X89095000Y-111877000D01*
X87687000Y-111877000D01*
X87433000Y-111877000D01*
X86025000Y-111877000D01*
X85297440Y-111877000D01*
X85297440Y-110723000D01*
X86025000Y-110723000D01*
X86025000Y-111623000D01*
X87433000Y-111623000D01*
X87433000Y-109479622D01*
X87687000Y-109479622D01*
X87687000Y-111623000D01*
X89095000Y-111623000D01*
X89095000Y-110723000D01*
X88929554Y-110145248D01*
X88555606Y-109674788D01*
X88030086Y-109383244D01*
X87924740Y-109358964D01*
X87687000Y-109479622D01*
X87433000Y-109479622D01*
X87195260Y-109358964D01*
X87089914Y-109383244D01*
X86564394Y-109674788D01*
X86190446Y-110145248D01*
X86025000Y-110723000D01*
X85297440Y-110723000D01*
X85297440Y-109950000D01*
X85253162Y-109714683D01*
X85114090Y-109498559D01*
X84901890Y-109353569D01*
X84650000Y-109302560D01*
X82850000Y-109302560D01*
X82614683Y-109346838D01*
X82398559Y-109485910D01*
X82253569Y-109698110D01*
X82202560Y-109950000D01*
X71061807Y-109950000D01*
X71239885Y-109683489D01*
X71353959Y-109110000D01*
X71239885Y-108536511D01*
X70915029Y-108050330D01*
X70600248Y-107840000D01*
X70915029Y-107629670D01*
X71239885Y-107143489D01*
X71353959Y-106570000D01*
X71239885Y-105996511D01*
X70915029Y-105510330D01*
X70600248Y-105300000D01*
X70915029Y-105089670D01*
X71239885Y-104603489D01*
X71353959Y-104030000D01*
X71239885Y-103456511D01*
X70915029Y-102970330D01*
X70591772Y-102754336D01*
X70714490Y-102696821D01*
X71108688Y-102264947D01*
X71280958Y-101849026D01*
X71159817Y-101617000D01*
X69953000Y-101617000D01*
X69953000Y-101637000D01*
X69699000Y-101637000D01*
X69699000Y-101617000D01*
X69679000Y-101617000D01*
X69679000Y-101363000D01*
X69699000Y-101363000D01*
X69699000Y-101343000D01*
X69953000Y-101343000D01*
X69953000Y-101363000D01*
X71159817Y-101363000D01*
X71280958Y-101130974D01*
X71263131Y-101087933D01*
X71664878Y-101489680D01*
X71664838Y-101535167D01*
X71806883Y-101878943D01*
X72069673Y-102142192D01*
X72413201Y-102284838D01*
X72785167Y-102285162D01*
X73128943Y-102143117D01*
X73392192Y-101880327D01*
X73534838Y-101536799D01*
X73535162Y-101164833D01*
X73393117Y-100821057D01*
X73130327Y-100557808D01*
X72786799Y-100415162D01*
X72739923Y-100415121D01*
X72110000Y-99785198D01*
X72110000Y-95050000D01*
X72052148Y-94759161D01*
X71887401Y-94512599D01*
X71335849Y-93961047D01*
X71353959Y-93870000D01*
X71239885Y-93296511D01*
X70915029Y-92810330D01*
X70600248Y-92600000D01*
X70915029Y-92389670D01*
X71239885Y-91903489D01*
X71353959Y-91330000D01*
X71239885Y-90756511D01*
X70915029Y-90270330D01*
X70600248Y-90060000D01*
X70915029Y-89849670D01*
X71041763Y-89660000D01*
X71465034Y-89660000D01*
X71464838Y-89885167D01*
X71464838Y-89885167D01*
G37*
X71464838Y-89885167D02*
X71606883Y-90228943D01*
X71869673Y-90492192D01*
X72213201Y-90634838D01*
X72585167Y-90635162D01*
X72928943Y-90493117D01*
X72962118Y-90460000D01*
X74685198Y-90460000D01*
X85812599Y-101587401D01*
X86059160Y-101752148D01*
X86350000Y-101810000D01*
X86475682Y-101785000D01*
X87275000Y-101785000D01*
X87400682Y-101760000D01*
X94085198Y-101760000D01*
X96140000Y-103814802D01*
X96140000Y-113407670D01*
X95790084Y-113756976D01*
X95590228Y-114238282D01*
X95589774Y-114759432D01*
X95788789Y-115241086D01*
X96156976Y-115609916D01*
X96638282Y-115809772D01*
X97159432Y-115810226D01*
X97641086Y-115611211D01*
X97900129Y-115352620D01*
X98156976Y-115609916D01*
X98638282Y-115809772D01*
X99159432Y-115810226D01*
X99641086Y-115611211D01*
X99900129Y-115352620D01*
X100156976Y-115609916D01*
X100638282Y-115809772D01*
X101159432Y-115810226D01*
X101641086Y-115611211D01*
X101900129Y-115352620D01*
X102156976Y-115609916D01*
X102638282Y-115809772D01*
X103159432Y-115810226D01*
X103641086Y-115611211D01*
X103900129Y-115352620D01*
X104156976Y-115609916D01*
X104285243Y-115663177D01*
X101583420Y-118365000D01*
X101052298Y-118365000D01*
X100798117Y-118315002D01*
X77665799Y-118364220D01*
X71337040Y-112035460D01*
X71337040Y-110786400D01*
X71292762Y-110551083D01*
X71153690Y-110334959D01*
X70941490Y-110189969D01*
X70897869Y-110181136D01*
X70915029Y-110169670D01*
X71061807Y-109950000D01*
X82202560Y-109950000D01*
X82202560Y-113550000D01*
X82246838Y-113785317D01*
X82385910Y-114001441D01*
X82598110Y-114146431D01*
X82850000Y-114197440D01*
X84650000Y-114197440D01*
X84885317Y-114153162D01*
X85101441Y-114014090D01*
X85246431Y-113801890D01*
X85297440Y-113550000D01*
X85297440Y-111877000D01*
X86025000Y-111877000D01*
X86025000Y-112777000D01*
X86190446Y-113354752D01*
X86564394Y-113825212D01*
X87089914Y-114116756D01*
X87195260Y-114141036D01*
X87433000Y-114020378D01*
X87433000Y-111877000D01*
X87687000Y-111877000D01*
X87687000Y-114020378D01*
X87924740Y-114141036D01*
X88030086Y-114116756D01*
X88555606Y-113825212D01*
X88929554Y-113354752D01*
X89095000Y-112777000D01*
X89095000Y-111877000D01*
X87687000Y-111877000D01*
X87433000Y-111877000D01*
X86025000Y-111877000D01*
X85297440Y-111877000D01*
X85297440Y-110723000D01*
X86025000Y-110723000D01*
X86025000Y-111623000D01*
X87433000Y-111623000D01*
X87433000Y-109479622D01*
X87687000Y-109479622D01*
X87687000Y-111623000D01*
X89095000Y-111623000D01*
X89095000Y-110723000D01*
X88929554Y-110145248D01*
X88555606Y-109674788D01*
X88030086Y-109383244D01*
X87924740Y-109358964D01*
X87687000Y-109479622D01*
X87433000Y-109479622D01*
X87195260Y-109358964D01*
X87089914Y-109383244D01*
X86564394Y-109674788D01*
X86190446Y-110145248D01*
X86025000Y-110723000D01*
X85297440Y-110723000D01*
X85297440Y-109950000D01*
X85253162Y-109714683D01*
X85114090Y-109498559D01*
X84901890Y-109353569D01*
X84650000Y-109302560D01*
X82850000Y-109302560D01*
X82614683Y-109346838D01*
X82398559Y-109485910D01*
X82253569Y-109698110D01*
X82202560Y-109950000D01*
X71061807Y-109950000D01*
X71239885Y-109683489D01*
X71353959Y-109110000D01*
X71239885Y-108536511D01*
X70915029Y-108050330D01*
X70600248Y-107840000D01*
X70915029Y-107629670D01*
X71239885Y-107143489D01*
X71353959Y-106570000D01*
X71239885Y-105996511D01*
X70915029Y-105510330D01*
X70600248Y-105300000D01*
X70915029Y-105089670D01*
X71239885Y-104603489D01*
X71353959Y-104030000D01*
X71239885Y-103456511D01*
X70915029Y-102970330D01*
X70591772Y-102754336D01*
X70714490Y-102696821D01*
X71108688Y-102264947D01*
X71280958Y-101849026D01*
X71159817Y-101617000D01*
X69953000Y-101617000D01*
X69953000Y-101637000D01*
X69699000Y-101637000D01*
X69699000Y-101617000D01*
X69679000Y-101617000D01*
X69679000Y-101363000D01*
X69699000Y-101363000D01*
X69699000Y-101343000D01*
X69953000Y-101343000D01*
X69953000Y-101363000D01*
X71159817Y-101363000D01*
X71280958Y-101130974D01*
X71263131Y-101087933D01*
X71664878Y-101489680D01*
X71664838Y-101535167D01*
X71806883Y-101878943D01*
X72069673Y-102142192D01*
X72413201Y-102284838D01*
X72785167Y-102285162D01*
X73128943Y-102143117D01*
X73392192Y-101880327D01*
X73534838Y-101536799D01*
X73535162Y-101164833D01*
X73393117Y-100821057D01*
X73130327Y-100557808D01*
X72786799Y-100415162D01*
X72739923Y-100415121D01*
X72110000Y-99785198D01*
X72110000Y-95050000D01*
X72052148Y-94759161D01*
X71887401Y-94512599D01*
X71335849Y-93961047D01*
X71353959Y-93870000D01*
X71239885Y-93296511D01*
X70915029Y-92810330D01*
X70600248Y-92600000D01*
X70915029Y-92389670D01*
X71239885Y-91903489D01*
X71353959Y-91330000D01*
X71239885Y-90756511D01*
X70915029Y-90270330D01*
X70600248Y-90060000D01*
X70915029Y-89849670D01*
X71041763Y-89660000D01*
X71465034Y-89660000D01*
X71464838Y-89885167D01*
G36*
X66438249Y-61579806D02*
X67210671Y-61900544D01*
X66683152Y-62005474D01*
X66196971Y-62330330D01*
X65872115Y-62816511D01*
X65758041Y-63390000D01*
X65872115Y-63963489D01*
X66196971Y-64449670D01*
X66511752Y-64660000D01*
X66196971Y-64870330D01*
X65872115Y-65356511D01*
X65758041Y-65930000D01*
X65872115Y-66503489D01*
X66196971Y-66989670D01*
X66511752Y-67200000D01*
X66196971Y-67410330D01*
X65872115Y-67896511D01*
X65758041Y-68470000D01*
X65872115Y-69043489D01*
X66196971Y-69529670D01*
X66520228Y-69745664D01*
X66397510Y-69803179D01*
X66003312Y-70235053D01*
X65831042Y-70650974D01*
X65952183Y-70883000D01*
X67159000Y-70883000D01*
X67159000Y-70863000D01*
X67413000Y-70863000D01*
X67413000Y-70883000D01*
X67433000Y-70883000D01*
X67433000Y-71137000D01*
X67413000Y-71137000D01*
X67413000Y-71157000D01*
X67159000Y-71157000D01*
X67159000Y-71137000D01*
X65952183Y-71137000D01*
X65831042Y-71369026D01*
X66003312Y-71784947D01*
X66397510Y-72216821D01*
X66520228Y-72274336D01*
X66196971Y-72490330D01*
X65872115Y-72976511D01*
X65758041Y-73550000D01*
X65872115Y-74123489D01*
X66196971Y-74609670D01*
X66520228Y-74825664D01*
X66397510Y-74883179D01*
X66003312Y-75315053D01*
X65831042Y-75730974D01*
X65952183Y-75963000D01*
X67159000Y-75963000D01*
X67159000Y-75943000D01*
X67413000Y-75943000D01*
X67413000Y-75963000D01*
X67433000Y-75963000D01*
X67433000Y-76217000D01*
X67413000Y-76217000D01*
X67413000Y-76237000D01*
X67159000Y-76237000D01*
X67159000Y-76217000D01*
X65952183Y-76217000D01*
X65831042Y-76449026D01*
X66003312Y-76864947D01*
X66397510Y-77296821D01*
X66520228Y-77354336D01*
X66196971Y-77570330D01*
X65872115Y-78056511D01*
X65758041Y-78630000D01*
X65872115Y-79203489D01*
X66196971Y-79689670D01*
X66511752Y-79900000D01*
X66196971Y-80110330D01*
X65872115Y-80596511D01*
X65758041Y-81170000D01*
X65872115Y-81743489D01*
X66196971Y-82229670D01*
X66511752Y-82440000D01*
X66196971Y-82650330D01*
X65872115Y-83136511D01*
X65758041Y-83710000D01*
X65872115Y-84283489D01*
X66196971Y-84769670D01*
X66511752Y-84980000D01*
X66196971Y-85190330D01*
X65872115Y-85676511D01*
X65758041Y-86250000D01*
X65872115Y-86823489D01*
X66196971Y-87309670D01*
X66520228Y-87525664D01*
X66397510Y-87583179D01*
X66003312Y-88015053D01*
X65831042Y-88430974D01*
X65952183Y-88663000D01*
X67159000Y-88663000D01*
X67159000Y-88643000D01*
X67413000Y-88643000D01*
X67413000Y-88663000D01*
X67433000Y-88663000D01*
X67433000Y-88917000D01*
X67413000Y-88917000D01*
X67413000Y-88937000D01*
X67159000Y-88937000D01*
X67159000Y-88917000D01*
X65952183Y-88917000D01*
X65831042Y-89149026D01*
X66003312Y-89564947D01*
X66397510Y-89996821D01*
X66520228Y-90054336D01*
X66196971Y-90270330D01*
X65872115Y-90756511D01*
X65758041Y-91330000D01*
X65872115Y-91903489D01*
X66196971Y-92389670D01*
X66511752Y-92600000D01*
X66196971Y-92810330D01*
X65872115Y-93296511D01*
X65758041Y-93870000D01*
X65872115Y-94443489D01*
X66196971Y-94929670D01*
X66520228Y-95145664D01*
X66397510Y-95203179D01*
X66003312Y-95635053D01*
X65831042Y-96050974D01*
X65952183Y-96283000D01*
X67159000Y-96283000D01*
X67159000Y-96263000D01*
X67413000Y-96263000D01*
X67413000Y-96283000D01*
X67433000Y-96283000D01*
X67433000Y-96537000D01*
X67413000Y-96537000D01*
X67413000Y-96557000D01*
X67159000Y-96557000D01*
X67159000Y-96537000D01*
X65952183Y-96537000D01*
X65831042Y-96769026D01*
X66003312Y-97184947D01*
X66397510Y-97616821D01*
X66520228Y-97674336D01*
X66196971Y-97890330D01*
X65872115Y-98376511D01*
X65758041Y-98950000D01*
X65872115Y-99523489D01*
X66196971Y-100009670D01*
X66511752Y-100220000D01*
X66196971Y-100430330D01*
X65872115Y-100916511D01*
X65758041Y-101490000D01*
X65872115Y-102063489D01*
X66196971Y-102549670D01*
X66511752Y-102760000D01*
X66196971Y-102970330D01*
X65872115Y-103456511D01*
X65758041Y-104030000D01*
X65872115Y-104603489D01*
X66196971Y-105089670D01*
X66520228Y-105305664D01*
X66397510Y-105363179D01*
X66003312Y-105795053D01*
X65831042Y-106210974D01*
X65952183Y-106443000D01*
X67159000Y-106443000D01*
X67159000Y-106423000D01*
X67413000Y-106423000D01*
X67413000Y-106443000D01*
X67433000Y-106443000D01*
X67433000Y-106697000D01*
X67413000Y-106697000D01*
X67413000Y-106717000D01*
X67159000Y-106717000D01*
X67159000Y-106697000D01*
X65952183Y-106697000D01*
X65831042Y-106929026D01*
X66003312Y-107344947D01*
X66397510Y-107776821D01*
X66520228Y-107834336D01*
X66196971Y-108050330D01*
X65872115Y-108536511D01*
X65758041Y-109110000D01*
X65872115Y-109683489D01*
X66196971Y-110169670D01*
X66511752Y-110380000D01*
X66196971Y-110590330D01*
X65872115Y-111076511D01*
X65758041Y-111650000D01*
X65872115Y-112223489D01*
X66196971Y-112709670D01*
X66683152Y-113034526D01*
X67145663Y-113126525D01*
X66443628Y-113416600D01*
X65710000Y-114148948D01*
X65710000Y-60850285D01*
X66438249Y-61579806D01*
X66438249Y-61579806D01*
G37*
X66438249Y-61579806D02*
X67210671Y-61900544D01*
X66683152Y-62005474D01*
X66196971Y-62330330D01*
X65872115Y-62816511D01*
X65758041Y-63390000D01*
X65872115Y-63963489D01*
X66196971Y-64449670D01*
X66511752Y-64660000D01*
X66196971Y-64870330D01*
X65872115Y-65356511D01*
X65758041Y-65930000D01*
X65872115Y-66503489D01*
X66196971Y-66989670D01*
X66511752Y-67200000D01*
X66196971Y-67410330D01*
X65872115Y-67896511D01*
X65758041Y-68470000D01*
X65872115Y-69043489D01*
X66196971Y-69529670D01*
X66520228Y-69745664D01*
X66397510Y-69803179D01*
X66003312Y-70235053D01*
X65831042Y-70650974D01*
X65952183Y-70883000D01*
X67159000Y-70883000D01*
X67159000Y-70863000D01*
X67413000Y-70863000D01*
X67413000Y-70883000D01*
X67433000Y-70883000D01*
X67433000Y-71137000D01*
X67413000Y-71137000D01*
X67413000Y-71157000D01*
X67159000Y-71157000D01*
X67159000Y-71137000D01*
X65952183Y-71137000D01*
X65831042Y-71369026D01*
X66003312Y-71784947D01*
X66397510Y-72216821D01*
X66520228Y-72274336D01*
X66196971Y-72490330D01*
X65872115Y-72976511D01*
X65758041Y-73550000D01*
X65872115Y-74123489D01*
X66196971Y-74609670D01*
X66520228Y-74825664D01*
X66397510Y-74883179D01*
X66003312Y-75315053D01*
X65831042Y-75730974D01*
X65952183Y-75963000D01*
X67159000Y-75963000D01*
X67159000Y-75943000D01*
X67413000Y-75943000D01*
X67413000Y-75963000D01*
X67433000Y-75963000D01*
X67433000Y-76217000D01*
X67413000Y-76217000D01*
X67413000Y-76237000D01*
X67159000Y-76237000D01*
X67159000Y-76217000D01*
X65952183Y-76217000D01*
X65831042Y-76449026D01*
X66003312Y-76864947D01*
X66397510Y-77296821D01*
X66520228Y-77354336D01*
X66196971Y-77570330D01*
X65872115Y-78056511D01*
X65758041Y-78630000D01*
X65872115Y-79203489D01*
X66196971Y-79689670D01*
X66511752Y-79900000D01*
X66196971Y-80110330D01*
X65872115Y-80596511D01*
X65758041Y-81170000D01*
X65872115Y-81743489D01*
X66196971Y-82229670D01*
X66511752Y-82440000D01*
X66196971Y-82650330D01*
X65872115Y-83136511D01*
X65758041Y-83710000D01*
X65872115Y-84283489D01*
X66196971Y-84769670D01*
X66511752Y-84980000D01*
X66196971Y-85190330D01*
X65872115Y-85676511D01*
X65758041Y-86250000D01*
X65872115Y-86823489D01*
X66196971Y-87309670D01*
X66520228Y-87525664D01*
X66397510Y-87583179D01*
X66003312Y-88015053D01*
X65831042Y-88430974D01*
X65952183Y-88663000D01*
X67159000Y-88663000D01*
X67159000Y-88643000D01*
X67413000Y-88643000D01*
X67413000Y-88663000D01*
X67433000Y-88663000D01*
X67433000Y-88917000D01*
X67413000Y-88917000D01*
X67413000Y-88937000D01*
X67159000Y-88937000D01*
X67159000Y-88917000D01*
X65952183Y-88917000D01*
X65831042Y-89149026D01*
X66003312Y-89564947D01*
X66397510Y-89996821D01*
X66520228Y-90054336D01*
X66196971Y-90270330D01*
X65872115Y-90756511D01*
X65758041Y-91330000D01*
X65872115Y-91903489D01*
X66196971Y-92389670D01*
X66511752Y-92600000D01*
X66196971Y-92810330D01*
X65872115Y-93296511D01*
X65758041Y-93870000D01*
X65872115Y-94443489D01*
X66196971Y-94929670D01*
X66520228Y-95145664D01*
X66397510Y-95203179D01*
X66003312Y-95635053D01*
X65831042Y-96050974D01*
X65952183Y-96283000D01*
X67159000Y-96283000D01*
X67159000Y-96263000D01*
X67413000Y-96263000D01*
X67413000Y-96283000D01*
X67433000Y-96283000D01*
X67433000Y-96537000D01*
X67413000Y-96537000D01*
X67413000Y-96557000D01*
X67159000Y-96557000D01*
X67159000Y-96537000D01*
X65952183Y-96537000D01*
X65831042Y-96769026D01*
X66003312Y-97184947D01*
X66397510Y-97616821D01*
X66520228Y-97674336D01*
X66196971Y-97890330D01*
X65872115Y-98376511D01*
X65758041Y-98950000D01*
X65872115Y-99523489D01*
X66196971Y-100009670D01*
X66511752Y-100220000D01*
X66196971Y-100430330D01*
X65872115Y-100916511D01*
X65758041Y-101490000D01*
X65872115Y-102063489D01*
X66196971Y-102549670D01*
X66511752Y-102760000D01*
X66196971Y-102970330D01*
X65872115Y-103456511D01*
X65758041Y-104030000D01*
X65872115Y-104603489D01*
X66196971Y-105089670D01*
X66520228Y-105305664D01*
X66397510Y-105363179D01*
X66003312Y-105795053D01*
X65831042Y-106210974D01*
X65952183Y-106443000D01*
X67159000Y-106443000D01*
X67159000Y-106423000D01*
X67413000Y-106423000D01*
X67413000Y-106443000D01*
X67433000Y-106443000D01*
X67433000Y-106697000D01*
X67413000Y-106697000D01*
X67413000Y-106717000D01*
X67159000Y-106717000D01*
X67159000Y-106697000D01*
X65952183Y-106697000D01*
X65831042Y-106929026D01*
X66003312Y-107344947D01*
X66397510Y-107776821D01*
X66520228Y-107834336D01*
X66196971Y-108050330D01*
X65872115Y-108536511D01*
X65758041Y-109110000D01*
X65872115Y-109683489D01*
X66196971Y-110169670D01*
X66511752Y-110380000D01*
X66196971Y-110590330D01*
X65872115Y-111076511D01*
X65758041Y-111650000D01*
X65872115Y-112223489D01*
X66196971Y-112709670D01*
X66683152Y-113034526D01*
X67145663Y-113126525D01*
X66443628Y-113416600D01*
X65710000Y-114148948D01*
X65710000Y-60850285D01*
X66438249Y-61579806D01*
G36*
X114420194Y-56438249D02*
X113865632Y-57773782D01*
X113864585Y-58973006D01*
X113074928Y-58183348D01*
X113075231Y-57835617D01*
X112872418Y-57344771D01*
X112497204Y-56968902D01*
X112006713Y-56765232D01*
X111475617Y-56764769D01*
X110984771Y-56967582D01*
X110736921Y-57215000D01*
X110202873Y-57215000D01*
X109957204Y-56968902D01*
X109466713Y-56765232D01*
X108935617Y-56764769D01*
X108444771Y-56967582D01*
X108068902Y-57342796D01*
X107865232Y-57833287D01*
X107864769Y-58364383D01*
X108067582Y-58855229D01*
X108442796Y-59231098D01*
X108933287Y-59434768D01*
X109464383Y-59435231D01*
X109955229Y-59232418D01*
X110203079Y-58985000D01*
X110737127Y-58985000D01*
X110982796Y-59231098D01*
X111473287Y-59434768D01*
X111823493Y-59435073D01*
X115764208Y-63375787D01*
X115764210Y-63375790D01*
X116051325Y-63567633D01*
X116069710Y-63571290D01*
X116615000Y-64116579D01*
X116615000Y-64816615D01*
X116480090Y-64606959D01*
X116267890Y-64461969D01*
X116016000Y-64410960D01*
X113984000Y-64410960D01*
X113748683Y-64455238D01*
X113532559Y-64594310D01*
X113387569Y-64806510D01*
X113336560Y-65058400D01*
X113336560Y-66785600D01*
X113380838Y-67020917D01*
X113519910Y-67237041D01*
X113732110Y-67382031D01*
X113773439Y-67390400D01*
X113755585Y-67402330D01*
X113430729Y-67888511D01*
X113316655Y-68462000D01*
X113430729Y-69035489D01*
X113755585Y-69521670D01*
X114070366Y-69732000D01*
X113755585Y-69942330D01*
X113430729Y-70428511D01*
X113316655Y-71002000D01*
X113430729Y-71575489D01*
X113755585Y-72061670D01*
X114065069Y-72268461D01*
X113649268Y-72639964D01*
X113395291Y-73167209D01*
X113392642Y-73182974D01*
X113513783Y-73415000D01*
X114873000Y-73415000D01*
X114873000Y-73395000D01*
X115127000Y-73395000D01*
X115127000Y-73415000D01*
X115147000Y-73415000D01*
X115147000Y-73669000D01*
X115127000Y-73669000D01*
X115127000Y-74882924D01*
X115361913Y-75027184D01*
X115914320Y-74833954D01*
X116165000Y-74609981D01*
X116165000Y-78411133D01*
X116016000Y-78380960D01*
X113984000Y-78380960D01*
X113748683Y-78425238D01*
X113532559Y-78564310D01*
X113387569Y-78776510D01*
X113336560Y-79028400D01*
X113336560Y-80755600D01*
X113380838Y-80990917D01*
X113519910Y-81207041D01*
X113732110Y-81352031D01*
X113773439Y-81360400D01*
X113755585Y-81372330D01*
X113430729Y-81858511D01*
X113316655Y-82432000D01*
X113430729Y-83005489D01*
X113755585Y-83491670D01*
X114070366Y-83702000D01*
X113755585Y-83912330D01*
X113430729Y-84398511D01*
X113316655Y-84972000D01*
X113430729Y-85545489D01*
X113755585Y-86031670D01*
X114065069Y-86238461D01*
X113649268Y-86609964D01*
X113395291Y-87137209D01*
X113392642Y-87152974D01*
X113513783Y-87385000D01*
X114873000Y-87385000D01*
X114873000Y-87365000D01*
X115127000Y-87365000D01*
X115127000Y-87385000D01*
X115147000Y-87385000D01*
X115147000Y-87639000D01*
X115127000Y-87639000D01*
X115127000Y-88852924D01*
X115361913Y-88997184D01*
X115914320Y-88803954D01*
X116350732Y-88414036D01*
X116515000Y-88073023D01*
X116515000Y-92601211D01*
X116480090Y-92546959D01*
X116267890Y-92401969D01*
X116016000Y-92350960D01*
X113984000Y-92350960D01*
X113748683Y-92395238D01*
X113532559Y-92534310D01*
X113387569Y-92746510D01*
X113336560Y-92998400D01*
X113336560Y-94725600D01*
X113380838Y-94960917D01*
X113519910Y-95177041D01*
X113732110Y-95322031D01*
X113773439Y-95330400D01*
X113755585Y-95342330D01*
X113430729Y-95828511D01*
X113316655Y-96402000D01*
X113430729Y-96975489D01*
X113755585Y-97461670D01*
X114070366Y-97672000D01*
X113755585Y-97882330D01*
X113430729Y-98368511D01*
X113316655Y-98942000D01*
X113381321Y-99267099D01*
X112114210Y-100534210D01*
X111922367Y-100821325D01*
X111922367Y-100821326D01*
X111854999Y-101160000D01*
X111855000Y-101160005D01*
X111855000Y-106497127D01*
X111736921Y-106615000D01*
X111202873Y-106615000D01*
X110957204Y-106368902D01*
X110466713Y-106165232D01*
X109935617Y-106164769D01*
X109444771Y-106367582D01*
X109068902Y-106742796D01*
X108865232Y-107233287D01*
X108864769Y-107764383D01*
X109067582Y-108255229D01*
X109442796Y-108631098D01*
X109933287Y-108834768D01*
X110464383Y-108835231D01*
X110955229Y-108632418D01*
X111203079Y-108385000D01*
X111737127Y-108385000D01*
X111982796Y-108631098D01*
X112473287Y-108834768D01*
X113004383Y-108835231D01*
X113275010Y-108723411D01*
X112883420Y-109115000D01*
X109800000Y-109115000D01*
X109461325Y-109182367D01*
X109174210Y-109374210D01*
X109174208Y-109374213D01*
X106274210Y-112274210D01*
X106082367Y-112561325D01*
X106082367Y-112561326D01*
X106014999Y-112900000D01*
X106015000Y-112900005D01*
X106015000Y-113532452D01*
X105899871Y-113647380D01*
X105643024Y-113390084D01*
X105560000Y-113355609D01*
X105560000Y-106950000D01*
X105532152Y-106810000D01*
X105502148Y-106659160D01*
X105337401Y-106412599D01*
X95587401Y-96662599D01*
X95340839Y-96497852D01*
X95050000Y-96440000D01*
X86864802Y-96440000D01*
X84009969Y-93585167D01*
X99964838Y-93585167D01*
X100106883Y-93928943D01*
X100369673Y-94192192D01*
X100608762Y-94291471D01*
X100706883Y-94528943D01*
X100969673Y-94792192D01*
X101313201Y-94934838D01*
X101685167Y-94935162D01*
X102028943Y-94793117D01*
X102062118Y-94760000D01*
X104037711Y-94760000D01*
X104169673Y-94892192D01*
X104513201Y-95034838D01*
X104885167Y-95035162D01*
X105228943Y-94893117D01*
X105492192Y-94630327D01*
X105634838Y-94286799D01*
X105634883Y-94235118D01*
X105685167Y-94235162D01*
X106028943Y-94093117D01*
X106292192Y-93830327D01*
X106434838Y-93486799D01*
X106435162Y-93114833D01*
X106293117Y-92771057D01*
X106030327Y-92507808D01*
X105686799Y-92365162D01*
X105314833Y-92364838D01*
X104971057Y-92506883D01*
X104937882Y-92540000D01*
X101267028Y-92540000D01*
X101086799Y-92465162D01*
X100714833Y-92464838D01*
X100371057Y-92606883D01*
X100107808Y-92869673D01*
X99965162Y-93213201D01*
X99964838Y-93585167D01*
X84009969Y-93585167D01*
X78295828Y-87871026D01*
X113392642Y-87871026D01*
X113395291Y-87886791D01*
X113649268Y-88414036D01*
X114085680Y-88803954D01*
X114638087Y-88997184D01*
X114873000Y-88852924D01*
X114873000Y-87639000D01*
X113513783Y-87639000D01*
X113392642Y-87871026D01*
X78295828Y-87871026D01*
X78187401Y-87762599D01*
X77940839Y-87597852D01*
X77650000Y-87540000D01*
X74714802Y-87540000D01*
X72235620Y-85060818D01*
X72203401Y-85012599D01*
X72037404Y-84846602D01*
X72037402Y-84846599D01*
X71278776Y-84087973D01*
X71353959Y-83710000D01*
X71239885Y-83136511D01*
X70915029Y-82650330D01*
X70591772Y-82434336D01*
X70714490Y-82376821D01*
X71108688Y-81944947D01*
X71280958Y-81529026D01*
X71159817Y-81297000D01*
X69953000Y-81297000D01*
X69953000Y-81317000D01*
X69699000Y-81317000D01*
X69699000Y-81297000D01*
X69679000Y-81297000D01*
X69679000Y-81043000D01*
X69699000Y-81043000D01*
X69699000Y-81023000D01*
X69953000Y-81023000D01*
X69953000Y-81043000D01*
X71159817Y-81043000D01*
X71280958Y-80810974D01*
X71108688Y-80395053D01*
X70714490Y-79963179D01*
X70591772Y-79905664D01*
X70915029Y-79689670D01*
X71239885Y-79203489D01*
X71353959Y-78630000D01*
X71239885Y-78056511D01*
X70915029Y-77570330D01*
X70600248Y-77360000D01*
X70915029Y-77149670D01*
X71239885Y-76663489D01*
X71353959Y-76090000D01*
X71239885Y-75516511D01*
X70915029Y-75030330D01*
X70600248Y-74820000D01*
X70915029Y-74609670D01*
X71239885Y-74123489D01*
X71284135Y-73901026D01*
X113392642Y-73901026D01*
X113395291Y-73916791D01*
X113649268Y-74444036D01*
X114085680Y-74833954D01*
X114638087Y-75027184D01*
X114873000Y-74882924D01*
X114873000Y-73669000D01*
X113513783Y-73669000D01*
X113392642Y-73901026D01*
X71284135Y-73901026D01*
X71353959Y-73550000D01*
X71239885Y-72976511D01*
X70915029Y-72490330D01*
X70600248Y-72280000D01*
X70915029Y-72069670D01*
X71239885Y-71583489D01*
X71353959Y-71010000D01*
X71239885Y-70436511D01*
X70915029Y-69950330D01*
X70600248Y-69740000D01*
X70915029Y-69529670D01*
X71239885Y-69043489D01*
X71353959Y-68470000D01*
X71239885Y-67896511D01*
X70915029Y-67410330D01*
X70678835Y-67252510D01*
X79819692Y-67252510D01*
X80090110Y-67906972D01*
X80590395Y-68408130D01*
X81244383Y-68679690D01*
X81952510Y-68680308D01*
X82606972Y-68409890D01*
X82859893Y-68157409D01*
X103382196Y-68157409D01*
X103498605Y-68439312D01*
X104160856Y-68690049D01*
X104868649Y-68668267D01*
X105421395Y-68439312D01*
X105537804Y-68157409D01*
X104460000Y-67079605D01*
X103382196Y-68157409D01*
X82859893Y-68157409D01*
X83108130Y-67909605D01*
X83379690Y-67255617D01*
X83380261Y-66600856D01*
X102669951Y-66600856D01*
X102691733Y-67308649D01*
X102920688Y-67861395D01*
X103202591Y-67977804D01*
X104280395Y-66900000D01*
X104639605Y-66900000D01*
X105717409Y-67977804D01*
X105999312Y-67861395D01*
X106250049Y-67199144D01*
X106228267Y-66491351D01*
X105999312Y-65938605D01*
X105717409Y-65822196D01*
X104639605Y-66900000D01*
X104280395Y-66900000D01*
X103202591Y-65822196D01*
X102920688Y-65938605D01*
X102669951Y-66600856D01*
X83380261Y-66600856D01*
X83380308Y-66547490D01*
X83109890Y-65893028D01*
X82859890Y-65642591D01*
X103382196Y-65642591D01*
X104460000Y-66720395D01*
X105537804Y-65642591D01*
X105421395Y-65360688D01*
X104759144Y-65109951D01*
X104051351Y-65131733D01*
X103498605Y-65360688D01*
X103382196Y-65642591D01*
X82859890Y-65642591D01*
X82609605Y-65391870D01*
X81955617Y-65120310D01*
X81247490Y-65119692D01*
X80593028Y-65390110D01*
X80091870Y-65890395D01*
X79820310Y-66544383D01*
X79819692Y-67252510D01*
X70678835Y-67252510D01*
X70600248Y-67200000D01*
X70915029Y-66989670D01*
X71239885Y-66503489D01*
X71353959Y-65930000D01*
X71239885Y-65356511D01*
X70915029Y-64870330D01*
X70591772Y-64654336D01*
X70714490Y-64596821D01*
X71108688Y-64164947D01*
X71280958Y-63749026D01*
X71159817Y-63517000D01*
X69953000Y-63517000D01*
X69953000Y-63537000D01*
X69699000Y-63537000D01*
X69699000Y-63517000D01*
X69679000Y-63517000D01*
X69679000Y-63263000D01*
X69699000Y-63263000D01*
X69699000Y-62055531D01*
X69953000Y-62055531D01*
X69953000Y-63263000D01*
X71159817Y-63263000D01*
X71280958Y-63030974D01*
X71108688Y-62615053D01*
X70714490Y-62183179D01*
X70185027Y-61935032D01*
X69953000Y-62055531D01*
X69699000Y-62055531D01*
X69572599Y-61989887D01*
X70556372Y-61583400D01*
X71579806Y-60561751D01*
X72134368Y-59226218D01*
X72134534Y-59035275D01*
X73744331Y-59035275D01*
X73806169Y-59271042D01*
X74307122Y-59447419D01*
X74837440Y-59418664D01*
X75193831Y-59271042D01*
X75255669Y-59035275D01*
X76284331Y-59035275D01*
X76346169Y-59271042D01*
X76847122Y-59447419D01*
X77377440Y-59418664D01*
X77733831Y-59271042D01*
X77795669Y-59035275D01*
X77040000Y-58279605D01*
X76284331Y-59035275D01*
X75255669Y-59035275D01*
X74500000Y-58279605D01*
X73744331Y-59035275D01*
X72134534Y-59035275D01*
X72135519Y-57907122D01*
X73152581Y-57907122D01*
X73181336Y-58437440D01*
X73328958Y-58793831D01*
X73564725Y-58855669D01*
X74320395Y-58100000D01*
X74679605Y-58100000D01*
X75435275Y-58855669D01*
X75671042Y-58793831D01*
X75761977Y-58535555D01*
X75868958Y-58793831D01*
X76104725Y-58855669D01*
X76860395Y-58100000D01*
X77219605Y-58100000D01*
X77975275Y-58855669D01*
X78211042Y-58793831D01*
X78387419Y-58292878D01*
X78358664Y-57762560D01*
X78211042Y-57406169D01*
X77975275Y-57344331D01*
X77219605Y-58100000D01*
X76860395Y-58100000D01*
X76104725Y-57344331D01*
X75868958Y-57406169D01*
X75778023Y-57664445D01*
X75671042Y-57406169D01*
X75435275Y-57344331D01*
X74679605Y-58100000D01*
X74320395Y-58100000D01*
X73564725Y-57344331D01*
X73328958Y-57406169D01*
X73152581Y-57907122D01*
X72135519Y-57907122D01*
X72135630Y-57780126D01*
X71881352Y-57164725D01*
X73744331Y-57164725D01*
X74500000Y-57920395D01*
X75255669Y-57164725D01*
X76284331Y-57164725D01*
X77040000Y-57920395D01*
X77795669Y-57164725D01*
X77733831Y-56928958D01*
X77232878Y-56752581D01*
X76702560Y-56781336D01*
X76346169Y-56928958D01*
X76284331Y-57164725D01*
X75255669Y-57164725D01*
X75193831Y-56928958D01*
X74692878Y-56752581D01*
X74162560Y-56781336D01*
X73806169Y-56928958D01*
X73744331Y-57164725D01*
X71881352Y-57164725D01*
X71583400Y-56443628D01*
X70851052Y-55710000D01*
X115149715Y-55710000D01*
X114420194Y-56438249D01*
X114420194Y-56438249D01*
G37*
X114420194Y-56438249D02*
X113865632Y-57773782D01*
X113864585Y-58973006D01*
X113074928Y-58183348D01*
X113075231Y-57835617D01*
X112872418Y-57344771D01*
X112497204Y-56968902D01*
X112006713Y-56765232D01*
X111475617Y-56764769D01*
X110984771Y-56967582D01*
X110736921Y-57215000D01*
X110202873Y-57215000D01*
X109957204Y-56968902D01*
X109466713Y-56765232D01*
X108935617Y-56764769D01*
X108444771Y-56967582D01*
X108068902Y-57342796D01*
X107865232Y-57833287D01*
X107864769Y-58364383D01*
X108067582Y-58855229D01*
X108442796Y-59231098D01*
X108933287Y-59434768D01*
X109464383Y-59435231D01*
X109955229Y-59232418D01*
X110203079Y-58985000D01*
X110737127Y-58985000D01*
X110982796Y-59231098D01*
X111473287Y-59434768D01*
X111823493Y-59435073D01*
X115764208Y-63375787D01*
X115764210Y-63375790D01*
X116051325Y-63567633D01*
X116069710Y-63571290D01*
X116615000Y-64116579D01*
X116615000Y-64816615D01*
X116480090Y-64606959D01*
X116267890Y-64461969D01*
X116016000Y-64410960D01*
X113984000Y-64410960D01*
X113748683Y-64455238D01*
X113532559Y-64594310D01*
X113387569Y-64806510D01*
X113336560Y-65058400D01*
X113336560Y-66785600D01*
X113380838Y-67020917D01*
X113519910Y-67237041D01*
X113732110Y-67382031D01*
X113773439Y-67390400D01*
X113755585Y-67402330D01*
X113430729Y-67888511D01*
X113316655Y-68462000D01*
X113430729Y-69035489D01*
X113755585Y-69521670D01*
X114070366Y-69732000D01*
X113755585Y-69942330D01*
X113430729Y-70428511D01*
X113316655Y-71002000D01*
X113430729Y-71575489D01*
X113755585Y-72061670D01*
X114065069Y-72268461D01*
X113649268Y-72639964D01*
X113395291Y-73167209D01*
X113392642Y-73182974D01*
X113513783Y-73415000D01*
X114873000Y-73415000D01*
X114873000Y-73395000D01*
X115127000Y-73395000D01*
X115127000Y-73415000D01*
X115147000Y-73415000D01*
X115147000Y-73669000D01*
X115127000Y-73669000D01*
X115127000Y-74882924D01*
X115361913Y-75027184D01*
X115914320Y-74833954D01*
X116165000Y-74609981D01*
X116165000Y-78411133D01*
X116016000Y-78380960D01*
X113984000Y-78380960D01*
X113748683Y-78425238D01*
X113532559Y-78564310D01*
X113387569Y-78776510D01*
X113336560Y-79028400D01*
X113336560Y-80755600D01*
X113380838Y-80990917D01*
X113519910Y-81207041D01*
X113732110Y-81352031D01*
X113773439Y-81360400D01*
X113755585Y-81372330D01*
X113430729Y-81858511D01*
X113316655Y-82432000D01*
X113430729Y-83005489D01*
X113755585Y-83491670D01*
X114070366Y-83702000D01*
X113755585Y-83912330D01*
X113430729Y-84398511D01*
X113316655Y-84972000D01*
X113430729Y-85545489D01*
X113755585Y-86031670D01*
X114065069Y-86238461D01*
X113649268Y-86609964D01*
X113395291Y-87137209D01*
X113392642Y-87152974D01*
X113513783Y-87385000D01*
X114873000Y-87385000D01*
X114873000Y-87365000D01*
X115127000Y-87365000D01*
X115127000Y-87385000D01*
X115147000Y-87385000D01*
X115147000Y-87639000D01*
X115127000Y-87639000D01*
X115127000Y-88852924D01*
X115361913Y-88997184D01*
X115914320Y-88803954D01*
X116350732Y-88414036D01*
X116515000Y-88073023D01*
X116515000Y-92601211D01*
X116480090Y-92546959D01*
X116267890Y-92401969D01*
X116016000Y-92350960D01*
X113984000Y-92350960D01*
X113748683Y-92395238D01*
X113532559Y-92534310D01*
X113387569Y-92746510D01*
X113336560Y-92998400D01*
X113336560Y-94725600D01*
X113380838Y-94960917D01*
X113519910Y-95177041D01*
X113732110Y-95322031D01*
X113773439Y-95330400D01*
X113755585Y-95342330D01*
X113430729Y-95828511D01*
X113316655Y-96402000D01*
X113430729Y-96975489D01*
X113755585Y-97461670D01*
X114070366Y-97672000D01*
X113755585Y-97882330D01*
X113430729Y-98368511D01*
X113316655Y-98942000D01*
X113381321Y-99267099D01*
X112114210Y-100534210D01*
X111922367Y-100821325D01*
X111922367Y-100821326D01*
X111854999Y-101160000D01*
X111855000Y-101160005D01*
X111855000Y-106497127D01*
X111736921Y-106615000D01*
X111202873Y-106615000D01*
X110957204Y-106368902D01*
X110466713Y-106165232D01*
X109935617Y-106164769D01*
X109444771Y-106367582D01*
X109068902Y-106742796D01*
X108865232Y-107233287D01*
X108864769Y-107764383D01*
X109067582Y-108255229D01*
X109442796Y-108631098D01*
X109933287Y-108834768D01*
X110464383Y-108835231D01*
X110955229Y-108632418D01*
X111203079Y-108385000D01*
X111737127Y-108385000D01*
X111982796Y-108631098D01*
X112473287Y-108834768D01*
X113004383Y-108835231D01*
X113275010Y-108723411D01*
X112883420Y-109115000D01*
X109800000Y-109115000D01*
X109461325Y-109182367D01*
X109174210Y-109374210D01*
X109174208Y-109374213D01*
X106274210Y-112274210D01*
X106082367Y-112561325D01*
X106082367Y-112561326D01*
X106014999Y-112900000D01*
X106015000Y-112900005D01*
X106015000Y-113532452D01*
X105899871Y-113647380D01*
X105643024Y-113390084D01*
X105560000Y-113355609D01*
X105560000Y-106950000D01*
X105532152Y-106810000D01*
X105502148Y-106659160D01*
X105337401Y-106412599D01*
X95587401Y-96662599D01*
X95340839Y-96497852D01*
X95050000Y-96440000D01*
X86864802Y-96440000D01*
X84009969Y-93585167D01*
X99964838Y-93585167D01*
X100106883Y-93928943D01*
X100369673Y-94192192D01*
X100608762Y-94291471D01*
X100706883Y-94528943D01*
X100969673Y-94792192D01*
X101313201Y-94934838D01*
X101685167Y-94935162D01*
X102028943Y-94793117D01*
X102062118Y-94760000D01*
X104037711Y-94760000D01*
X104169673Y-94892192D01*
X104513201Y-95034838D01*
X104885167Y-95035162D01*
X105228943Y-94893117D01*
X105492192Y-94630327D01*
X105634838Y-94286799D01*
X105634883Y-94235118D01*
X105685167Y-94235162D01*
X106028943Y-94093117D01*
X106292192Y-93830327D01*
X106434838Y-93486799D01*
X106435162Y-93114833D01*
X106293117Y-92771057D01*
X106030327Y-92507808D01*
X105686799Y-92365162D01*
X105314833Y-92364838D01*
X104971057Y-92506883D01*
X104937882Y-92540000D01*
X101267028Y-92540000D01*
X101086799Y-92465162D01*
X100714833Y-92464838D01*
X100371057Y-92606883D01*
X100107808Y-92869673D01*
X99965162Y-93213201D01*
X99964838Y-93585167D01*
X84009969Y-93585167D01*
X78295828Y-87871026D01*
X113392642Y-87871026D01*
X113395291Y-87886791D01*
X113649268Y-88414036D01*
X114085680Y-88803954D01*
X114638087Y-88997184D01*
X114873000Y-88852924D01*
X114873000Y-87639000D01*
X113513783Y-87639000D01*
X113392642Y-87871026D01*
X78295828Y-87871026D01*
X78187401Y-87762599D01*
X77940839Y-87597852D01*
X77650000Y-87540000D01*
X74714802Y-87540000D01*
X72235620Y-85060818D01*
X72203401Y-85012599D01*
X72037404Y-84846602D01*
X72037402Y-84846599D01*
X71278776Y-84087973D01*
X71353959Y-83710000D01*
X71239885Y-83136511D01*
X70915029Y-82650330D01*
X70591772Y-82434336D01*
X70714490Y-82376821D01*
X71108688Y-81944947D01*
X71280958Y-81529026D01*
X71159817Y-81297000D01*
X69953000Y-81297000D01*
X69953000Y-81317000D01*
X69699000Y-81317000D01*
X69699000Y-81297000D01*
X69679000Y-81297000D01*
X69679000Y-81043000D01*
X69699000Y-81043000D01*
X69699000Y-81023000D01*
X69953000Y-81023000D01*
X69953000Y-81043000D01*
X71159817Y-81043000D01*
X71280958Y-80810974D01*
X71108688Y-80395053D01*
X70714490Y-79963179D01*
X70591772Y-79905664D01*
X70915029Y-79689670D01*
X71239885Y-79203489D01*
X71353959Y-78630000D01*
X71239885Y-78056511D01*
X70915029Y-77570330D01*
X70600248Y-77360000D01*
X70915029Y-77149670D01*
X71239885Y-76663489D01*
X71353959Y-76090000D01*
X71239885Y-75516511D01*
X70915029Y-75030330D01*
X70600248Y-74820000D01*
X70915029Y-74609670D01*
X71239885Y-74123489D01*
X71284135Y-73901026D01*
X113392642Y-73901026D01*
X113395291Y-73916791D01*
X113649268Y-74444036D01*
X114085680Y-74833954D01*
X114638087Y-75027184D01*
X114873000Y-74882924D01*
X114873000Y-73669000D01*
X113513783Y-73669000D01*
X113392642Y-73901026D01*
X71284135Y-73901026D01*
X71353959Y-73550000D01*
X71239885Y-72976511D01*
X70915029Y-72490330D01*
X70600248Y-72280000D01*
X70915029Y-72069670D01*
X71239885Y-71583489D01*
X71353959Y-71010000D01*
X71239885Y-70436511D01*
X70915029Y-69950330D01*
X70600248Y-69740000D01*
X70915029Y-69529670D01*
X71239885Y-69043489D01*
X71353959Y-68470000D01*
X71239885Y-67896511D01*
X70915029Y-67410330D01*
X70678835Y-67252510D01*
X79819692Y-67252510D01*
X80090110Y-67906972D01*
X80590395Y-68408130D01*
X81244383Y-68679690D01*
X81952510Y-68680308D01*
X82606972Y-68409890D01*
X82859893Y-68157409D01*
X103382196Y-68157409D01*
X103498605Y-68439312D01*
X104160856Y-68690049D01*
X104868649Y-68668267D01*
X105421395Y-68439312D01*
X105537804Y-68157409D01*
X104460000Y-67079605D01*
X103382196Y-68157409D01*
X82859893Y-68157409D01*
X83108130Y-67909605D01*
X83379690Y-67255617D01*
X83380261Y-66600856D01*
X102669951Y-66600856D01*
X102691733Y-67308649D01*
X102920688Y-67861395D01*
X103202591Y-67977804D01*
X104280395Y-66900000D01*
X104639605Y-66900000D01*
X105717409Y-67977804D01*
X105999312Y-67861395D01*
X106250049Y-67199144D01*
X106228267Y-66491351D01*
X105999312Y-65938605D01*
X105717409Y-65822196D01*
X104639605Y-66900000D01*
X104280395Y-66900000D01*
X103202591Y-65822196D01*
X102920688Y-65938605D01*
X102669951Y-66600856D01*
X83380261Y-66600856D01*
X83380308Y-66547490D01*
X83109890Y-65893028D01*
X82859890Y-65642591D01*
X103382196Y-65642591D01*
X104460000Y-66720395D01*
X105537804Y-65642591D01*
X105421395Y-65360688D01*
X104759144Y-65109951D01*
X104051351Y-65131733D01*
X103498605Y-65360688D01*
X103382196Y-65642591D01*
X82859890Y-65642591D01*
X82609605Y-65391870D01*
X81955617Y-65120310D01*
X81247490Y-65119692D01*
X80593028Y-65390110D01*
X80091870Y-65890395D01*
X79820310Y-66544383D01*
X79819692Y-67252510D01*
X70678835Y-67252510D01*
X70600248Y-67200000D01*
X70915029Y-66989670D01*
X71239885Y-66503489D01*
X71353959Y-65930000D01*
X71239885Y-65356511D01*
X70915029Y-64870330D01*
X70591772Y-64654336D01*
X70714490Y-64596821D01*
X71108688Y-64164947D01*
X71280958Y-63749026D01*
X71159817Y-63517000D01*
X69953000Y-63517000D01*
X69953000Y-63537000D01*
X69699000Y-63537000D01*
X69699000Y-63517000D01*
X69679000Y-63517000D01*
X69679000Y-63263000D01*
X69699000Y-63263000D01*
X69699000Y-62055531D01*
X69953000Y-62055531D01*
X69953000Y-63263000D01*
X71159817Y-63263000D01*
X71280958Y-63030974D01*
X71108688Y-62615053D01*
X70714490Y-62183179D01*
X70185027Y-61935032D01*
X69953000Y-62055531D01*
X69699000Y-62055531D01*
X69572599Y-61989887D01*
X70556372Y-61583400D01*
X71579806Y-60561751D01*
X72134368Y-59226218D01*
X72134534Y-59035275D01*
X73744331Y-59035275D01*
X73806169Y-59271042D01*
X74307122Y-59447419D01*
X74837440Y-59418664D01*
X75193831Y-59271042D01*
X75255669Y-59035275D01*
X76284331Y-59035275D01*
X76346169Y-59271042D01*
X76847122Y-59447419D01*
X77377440Y-59418664D01*
X77733831Y-59271042D01*
X77795669Y-59035275D01*
X77040000Y-58279605D01*
X76284331Y-59035275D01*
X75255669Y-59035275D01*
X74500000Y-58279605D01*
X73744331Y-59035275D01*
X72134534Y-59035275D01*
X72135519Y-57907122D01*
X73152581Y-57907122D01*
X73181336Y-58437440D01*
X73328958Y-58793831D01*
X73564725Y-58855669D01*
X74320395Y-58100000D01*
X74679605Y-58100000D01*
X75435275Y-58855669D01*
X75671042Y-58793831D01*
X75761977Y-58535555D01*
X75868958Y-58793831D01*
X76104725Y-58855669D01*
X76860395Y-58100000D01*
X77219605Y-58100000D01*
X77975275Y-58855669D01*
X78211042Y-58793831D01*
X78387419Y-58292878D01*
X78358664Y-57762560D01*
X78211042Y-57406169D01*
X77975275Y-57344331D01*
X77219605Y-58100000D01*
X76860395Y-58100000D01*
X76104725Y-57344331D01*
X75868958Y-57406169D01*
X75778023Y-57664445D01*
X75671042Y-57406169D01*
X75435275Y-57344331D01*
X74679605Y-58100000D01*
X74320395Y-58100000D01*
X73564725Y-57344331D01*
X73328958Y-57406169D01*
X73152581Y-57907122D01*
X72135519Y-57907122D01*
X72135630Y-57780126D01*
X71881352Y-57164725D01*
X73744331Y-57164725D01*
X74500000Y-57920395D01*
X75255669Y-57164725D01*
X76284331Y-57164725D01*
X77040000Y-57920395D01*
X77795669Y-57164725D01*
X77733831Y-56928958D01*
X77232878Y-56752581D01*
X76702560Y-56781336D01*
X76346169Y-56928958D01*
X76284331Y-57164725D01*
X75255669Y-57164725D01*
X75193831Y-56928958D01*
X74692878Y-56752581D01*
X74162560Y-56781336D01*
X73806169Y-56928958D01*
X73744331Y-57164725D01*
X71881352Y-57164725D01*
X71583400Y-56443628D01*
X70851052Y-55710000D01*
X115149715Y-55710000D01*
X114420194Y-56438249D01*
G36*
X115127000Y-101355000D02*
X115147000Y-101355000D01*
X115147000Y-101609000D01*
X115127000Y-101609000D01*
X115127000Y-102822924D01*
X115361913Y-102967184D01*
X115914320Y-102773954D01*
X116350732Y-102384036D01*
X116515000Y-102043023D01*
X116515000Y-105483421D01*
X113963326Y-108035094D01*
X114074768Y-107766713D01*
X114075231Y-107235617D01*
X113872418Y-106744771D01*
X113625000Y-106496921D01*
X113625000Y-102333657D01*
X113649268Y-102384036D01*
X114085680Y-102773954D01*
X114638087Y-102967184D01*
X114873000Y-102822924D01*
X114873000Y-101609000D01*
X114853000Y-101609000D01*
X114853000Y-101355000D01*
X114873000Y-101355000D01*
X114873000Y-101335000D01*
X115127000Y-101335000D01*
X115127000Y-101355000D01*
X115127000Y-101355000D01*
G37*
X115127000Y-101355000D02*
X115147000Y-101355000D01*
X115147000Y-101609000D01*
X115127000Y-101609000D01*
X115127000Y-102822924D01*
X115361913Y-102967184D01*
X115914320Y-102773954D01*
X116350732Y-102384036D01*
X116515000Y-102043023D01*
X116515000Y-105483421D01*
X113963326Y-108035094D01*
X114074768Y-107766713D01*
X114075231Y-107235617D01*
X113872418Y-106744771D01*
X113625000Y-106496921D01*
X113625000Y-102333657D01*
X113649268Y-102384036D01*
X114085680Y-102773954D01*
X114638087Y-102967184D01*
X114873000Y-102822924D01*
X114873000Y-101609000D01*
X114853000Y-101609000D01*
X114853000Y-101355000D01*
X114873000Y-101355000D01*
X114873000Y-101335000D01*
X115127000Y-101335000D01*
X115127000Y-101355000D01*
G36*
X68736971Y-79689670D02*
X69060228Y-79905664D01*
X68937510Y-79963179D01*
X68555992Y-80381161D01*
X68375029Y-80110330D01*
X68060248Y-79900000D01*
X68375029Y-79689670D01*
X68556000Y-79418828D01*
X68736971Y-79689670D01*
X68736971Y-79689670D01*
G37*
X68736971Y-79689670D02*
X69060228Y-79905664D01*
X68937510Y-79963179D01*
X68555992Y-80381161D01*
X68375029Y-80110330D01*
X68060248Y-79900000D01*
X68375029Y-79689670D01*
X68556000Y-79418828D01*
X68736971Y-79689670D01*
G36*
X68736971Y-77149670D02*
X69051752Y-77360000D01*
X68736971Y-77570330D01*
X68556000Y-77841172D01*
X68375029Y-77570330D01*
X68051772Y-77354336D01*
X68174490Y-77296821D01*
X68556008Y-76878839D01*
X68736971Y-77149670D01*
X68736971Y-77149670D01*
G37*
X68736971Y-77149670D02*
X69051752Y-77360000D01*
X68736971Y-77570330D01*
X68556000Y-77841172D01*
X68375029Y-77570330D01*
X68051772Y-77354336D01*
X68174490Y-77296821D01*
X68556008Y-76878839D01*
X68736971Y-77149670D01*
M02*
