G04 #@! TF.FileFunction,Soldermask,Bot*
%FSLAX46Y46*%
G04 Gerber Fmt 4.6, Leading zero omitted, Abs format (unit mm)*
G04 Created by KiCad (PCBNEW 4.0.7-e2-6376~58~ubuntu17.04.1) date Sat Sep 30 09:18:45 2017*
%MOMM*%
%LPD*%
G01*
G04 APERTURE LIST*
%ADD10C,0.100000*%
%ADD11C,6.400000*%
%ADD12R,2.200000X4.000000*%
%ADD13O,2.200000X4.000000*%
%ADD14R,1.750000X1.750000*%
%ADD15C,1.750000*%
%ADD16R,2.432000X2.127200*%
%ADD17O,2.432000X2.127200*%
%ADD18C,1.800000*%
%ADD19R,2.127200X2.127200*%
%ADD20O,2.127200X2.127200*%
%ADD21C,2.690000*%
G04 APERTURE END LIST*
D10*
D11*
X68500000Y-58500000D03*
X117500000Y-58500000D03*
X68500000Y-116500000D03*
X117500000Y-116500000D03*
D12*
X83750000Y-111750000D03*
D13*
X87560000Y-111750000D03*
D14*
X108900000Y-114500000D03*
D15*
X106900000Y-114500000D03*
X104900000Y-114500000D03*
X102900000Y-114500000D03*
X100900000Y-114500000D03*
X98900000Y-114500000D03*
X96900000Y-114500000D03*
D16*
X115000000Y-65922000D03*
D17*
X115000000Y-68462000D03*
X115000000Y-71002000D03*
X115000000Y-73542000D03*
D16*
X115000000Y-79892000D03*
D17*
X115000000Y-82432000D03*
X115000000Y-84972000D03*
X115000000Y-87512000D03*
D16*
X115000000Y-93862000D03*
D17*
X115000000Y-96402000D03*
X115000000Y-98942000D03*
X115000000Y-101482000D03*
D18*
X74500000Y-58100000D03*
X77040000Y-58100000D03*
X110200000Y-107500000D03*
X112740000Y-107500000D03*
X109200000Y-58100000D03*
X111740000Y-58100000D03*
D19*
X69826000Y-111650000D03*
D20*
X67286000Y-111650000D03*
X69826000Y-109110000D03*
X67286000Y-109110000D03*
X69826000Y-106570000D03*
X67286000Y-106570000D03*
X69826000Y-104030000D03*
X67286000Y-104030000D03*
X69826000Y-101490000D03*
X67286000Y-101490000D03*
X69826000Y-98950000D03*
X67286000Y-98950000D03*
X69826000Y-96410000D03*
X67286000Y-96410000D03*
X69826000Y-93870000D03*
X67286000Y-93870000D03*
X69826000Y-91330000D03*
X67286000Y-91330000D03*
X69826000Y-88790000D03*
X67286000Y-88790000D03*
X69826000Y-86250000D03*
X67286000Y-86250000D03*
X69826000Y-83710000D03*
X67286000Y-83710000D03*
X69826000Y-81170000D03*
X67286000Y-81170000D03*
X69826000Y-78630000D03*
X67286000Y-78630000D03*
X69826000Y-76090000D03*
X67286000Y-76090000D03*
X69826000Y-73550000D03*
X67286000Y-73550000D03*
X69826000Y-71010000D03*
X67286000Y-71010000D03*
X69826000Y-68470000D03*
X67286000Y-68470000D03*
X69826000Y-65930000D03*
X67286000Y-65930000D03*
X69826000Y-63390000D03*
X67286000Y-63390000D03*
D21*
X104460000Y-66900000D03*
X81600000Y-66900000D03*
M02*
