G04 #@! TF.FileFunction,Copper,L1,Top,Signal*
%FSLAX46Y46*%
G04 Gerber Fmt 4.6, Leading zero omitted, Abs format (unit mm)*
G04 Created by KiCad (PCBNEW 4.0.7-e2-6376~58~ubuntu17.04.1) date Sat Sep 30 09:18:45 2017*
%MOMM*%
%LPD*%
G01*
G04 APERTURE LIST*
%ADD10C,0.100000*%
%ADD11R,3.200000X2.600000*%
%ADD12C,6.000000*%
%ADD13R,1.250000X1.000000*%
%ADD14R,1.800000X3.600000*%
%ADD15O,1.800000X3.600000*%
%ADD16R,1.350000X1.350000*%
%ADD17C,1.350000*%
%ADD18R,2.032000X1.727200*%
%ADD19O,2.032000X1.727200*%
%ADD20C,1.400000*%
%ADD21R,1.727200X1.727200*%
%ADD22O,1.727200X1.727200*%
%ADD23R,0.900000X1.700000*%
%ADD24O,1.473200X0.609600*%
%ADD25R,0.800000X0.750000*%
%ADD26R,0.500000X0.900000*%
%ADD27R,1.000000X3.000000*%
%ADD28R,1.300000X1.900000*%
%ADD29C,2.290000*%
%ADD30C,0.700000*%
%ADD31C,0.600000*%
%ADD32C,0.250000*%
%ADD33C,0.500000*%
%ADD34C,0.254000*%
G04 APERTURE END LIST*
D10*
D11*
X76750000Y-105650000D03*
X76750000Y-112850000D03*
D12*
X68500000Y-58500000D03*
X117500000Y-58500000D03*
X68500000Y-116500000D03*
X117500000Y-116500000D03*
D13*
X82700000Y-103150000D03*
X82700000Y-101150000D03*
D14*
X83750000Y-111750000D03*
D15*
X87560000Y-111750000D03*
D16*
X108900000Y-114500000D03*
D17*
X106900000Y-114500000D03*
X104900000Y-114500000D03*
X102900000Y-114500000D03*
X100900000Y-114500000D03*
X98900000Y-114500000D03*
X96900000Y-114500000D03*
D18*
X115000000Y-65922000D03*
D19*
X115000000Y-68462000D03*
X115000000Y-71002000D03*
X115000000Y-73542000D03*
D18*
X115000000Y-79892000D03*
D19*
X115000000Y-82432000D03*
X115000000Y-84972000D03*
X115000000Y-87512000D03*
D18*
X115000000Y-93862000D03*
D19*
X115000000Y-96402000D03*
X115000000Y-98942000D03*
X115000000Y-101482000D03*
D20*
X74500000Y-58100000D03*
X77040000Y-58100000D03*
X110200000Y-107500000D03*
X112740000Y-107500000D03*
X109200000Y-58100000D03*
X111740000Y-58100000D03*
D21*
X69826000Y-111650000D03*
D22*
X67286000Y-111650000D03*
X69826000Y-109110000D03*
X67286000Y-109110000D03*
X69826000Y-106570000D03*
X67286000Y-106570000D03*
X69826000Y-104030000D03*
X67286000Y-104030000D03*
X69826000Y-101490000D03*
X67286000Y-101490000D03*
X69826000Y-98950000D03*
X67286000Y-98950000D03*
X69826000Y-96410000D03*
X67286000Y-96410000D03*
X69826000Y-93870000D03*
X67286000Y-93870000D03*
X69826000Y-91330000D03*
X67286000Y-91330000D03*
X69826000Y-88790000D03*
X67286000Y-88790000D03*
X69826000Y-86250000D03*
X67286000Y-86250000D03*
X69826000Y-83710000D03*
X67286000Y-83710000D03*
X69826000Y-81170000D03*
X67286000Y-81170000D03*
X69826000Y-78630000D03*
X67286000Y-78630000D03*
X69826000Y-76090000D03*
X67286000Y-76090000D03*
X69826000Y-73550000D03*
X67286000Y-73550000D03*
X69826000Y-71010000D03*
X67286000Y-71010000D03*
X69826000Y-68470000D03*
X67286000Y-68470000D03*
X69826000Y-65930000D03*
X67286000Y-65930000D03*
X69826000Y-63390000D03*
X67286000Y-63390000D03*
D23*
X81800000Y-106250000D03*
X84700000Y-106250000D03*
D24*
X85544000Y-85905000D03*
X85544000Y-84635000D03*
X85544000Y-83365000D03*
X85544000Y-82095000D03*
X79956000Y-82095000D03*
X79956000Y-83365000D03*
X79956000Y-84635000D03*
X79956000Y-85905000D03*
D25*
X88950000Y-88400000D03*
X90450000Y-88400000D03*
X88950000Y-79500000D03*
X90450000Y-79500000D03*
X73550000Y-85800000D03*
X75050000Y-85800000D03*
D26*
X108250000Y-93100000D03*
X106750000Y-93100000D03*
X108250000Y-95600000D03*
X106750000Y-95600000D03*
X75350000Y-83250000D03*
X76850000Y-83250000D03*
D27*
X87150000Y-107450000D03*
X91750000Y-107450000D03*
D28*
X89650000Y-85500000D03*
X95150000Y-85500000D03*
X95150000Y-82300000D03*
X89650000Y-82300000D03*
D29*
X104460000Y-66900000D03*
X81600000Y-66900000D03*
D30*
X76800000Y-90400000D03*
X78800000Y-91400000D03*
D31*
X72400000Y-89700000D03*
X105500000Y-93300000D03*
X100900000Y-93400000D03*
X104700000Y-94100000D03*
X101500000Y-94000000D03*
X72600000Y-101350000D03*
D30*
X108800000Y-66900000D03*
X76700000Y-85900000D03*
X99400000Y-85500000D03*
X101100000Y-79400000D03*
X82650000Y-99250000D03*
X85550000Y-80100000D03*
X112300000Y-87550000D03*
X91750000Y-111300000D03*
X76750000Y-102750000D03*
X112500000Y-73550000D03*
D32*
X83700000Y-78400000D02*
X83700000Y-69000000D01*
X83700000Y-69000000D02*
X81600000Y-66900000D01*
X85544000Y-85905000D02*
X84655000Y-85905000D01*
X83700000Y-84950000D02*
X83700000Y-78400000D01*
X83700000Y-78400000D02*
X83700000Y-78350000D01*
X84655000Y-85905000D02*
X83700000Y-84950000D01*
X85544000Y-84635000D02*
X88785000Y-84635000D01*
X88785000Y-84635000D02*
X89650000Y-85500000D01*
X88950000Y-88400000D02*
X89000000Y-86150000D01*
X89000000Y-86150000D02*
X89650000Y-85500000D01*
X85544000Y-83365000D02*
X88585000Y-83365000D01*
X88585000Y-83365000D02*
X89650000Y-82300000D01*
X88950000Y-79500000D02*
X89000000Y-81650000D01*
X89000000Y-81650000D02*
X89650000Y-82300000D01*
D33*
X73550000Y-85800000D02*
X73550000Y-85950000D01*
X73550000Y-85950000D02*
X74600000Y-87000000D01*
X78861000Y-87000000D02*
X79956000Y-85905000D01*
X75900000Y-87000000D02*
X78861000Y-87000000D01*
X74600000Y-87000000D02*
X75900000Y-87000000D01*
X69826000Y-91330000D02*
X72070000Y-91330000D01*
X73620000Y-87380000D02*
X73550000Y-85800000D01*
X73620000Y-89780000D02*
X73620000Y-87380000D01*
X72070000Y-91330000D02*
X73620000Y-89780000D01*
D32*
X79956000Y-85905000D02*
X79105000Y-85905000D01*
X79105000Y-85905000D02*
X77650000Y-84450000D01*
X77650000Y-84450000D02*
X76550000Y-84450000D01*
X76550000Y-84450000D02*
X75350000Y-83250000D01*
X79801000Y-86000000D02*
X79956000Y-85905000D01*
D33*
X79751000Y-85950000D02*
X79706000Y-85905000D01*
X81800000Y-108700000D02*
X78100000Y-108700000D01*
X76750000Y-110050000D02*
X76750000Y-112850000D01*
X78100000Y-108700000D02*
X76750000Y-110050000D01*
X83750000Y-111750000D02*
X83750000Y-108950000D01*
X81800000Y-108700000D02*
X81800000Y-106250000D01*
X83500000Y-108700000D02*
X81800000Y-108700000D01*
X83750000Y-108950000D02*
X83500000Y-108700000D01*
D32*
X70790000Y-96410000D02*
X69826000Y-96410000D01*
X76800000Y-90400000D02*
X70790000Y-96410000D01*
X79956000Y-84635000D02*
X81165000Y-84635000D01*
X73350000Y-92650000D02*
X69826000Y-96174000D01*
X77000000Y-89000000D02*
X73350000Y-92650000D01*
X78350000Y-89000000D02*
X77000000Y-89000000D01*
X81150000Y-86200000D02*
X78350000Y-89000000D01*
X81150000Y-84650000D02*
X81150000Y-86200000D01*
X81165000Y-84635000D02*
X81150000Y-84650000D01*
X69826000Y-96410000D02*
X69826000Y-96174000D01*
X70216172Y-96800172D02*
X69826000Y-96410000D01*
X78800000Y-91400000D02*
X71300000Y-98900000D01*
X71300000Y-98900000D02*
X71300000Y-98950000D01*
X71350000Y-98950000D02*
X71300000Y-98950000D01*
X71300000Y-98950000D02*
X69826000Y-98950000D01*
X82500000Y-84750000D02*
X82500000Y-86976000D01*
X82500000Y-82100000D02*
X82500000Y-84750000D01*
X82495000Y-82095000D02*
X82500000Y-82100000D01*
X79956000Y-82095000D02*
X82495000Y-82095000D01*
X82500000Y-86976000D02*
X79763000Y-89713000D01*
X79763000Y-89713000D02*
X79776000Y-89700000D01*
X79776000Y-89700000D02*
X79763000Y-89713000D01*
X79763000Y-89713000D02*
X70326000Y-99150000D01*
X68576000Y-85000000D02*
X67286000Y-83710000D01*
X70500000Y-85000000D02*
X68576000Y-85000000D01*
X71100000Y-85600000D02*
X70500000Y-85000000D01*
X71100000Y-88400000D02*
X71100000Y-85600000D01*
X72400000Y-89700000D02*
X71100000Y-88400000D01*
X93800247Y-93015877D02*
X100084123Y-93015877D01*
X113100000Y-69700000D02*
X117750000Y-69700000D01*
X110950000Y-71850000D02*
X113100000Y-69700000D01*
X110950000Y-75950000D02*
X110950000Y-71850000D01*
X110950000Y-82150000D02*
X110950000Y-75950000D01*
X100084123Y-93015877D02*
X110950000Y-82150000D01*
X67286000Y-103964000D02*
X68500000Y-102750000D01*
X68500000Y-102750000D02*
X71050000Y-102750000D01*
X71050000Y-102750000D02*
X71150000Y-102650000D01*
X71150000Y-102650000D02*
X71150000Y-101100000D01*
X71936546Y-100463454D02*
X71400000Y-100850000D01*
X79424865Y-92975135D02*
X71936546Y-100463454D01*
X93930350Y-93016260D02*
X93800247Y-93015877D01*
X93800247Y-93015877D02*
X79942654Y-92975135D01*
X79942654Y-92975135D02*
X79424865Y-92975135D01*
X71150000Y-101100000D02*
X71400000Y-100850000D01*
X67286000Y-104030000D02*
X67286000Y-103964000D01*
X118400000Y-67850000D02*
X116722000Y-66172000D01*
X117750000Y-69700000D02*
X118400000Y-69050000D01*
X118400000Y-69050000D02*
X118400000Y-67850000D01*
X117718000Y-69732000D02*
X117750000Y-69700000D01*
X116782000Y-66172000D02*
X116722000Y-66172000D01*
X116722000Y-66172000D02*
X115512000Y-66172000D01*
X93829000Y-92465000D02*
X99835000Y-92465000D01*
X67286000Y-101490000D02*
X67286000Y-100212000D01*
X71475696Y-100113452D02*
X71412023Y-100177089D01*
X67286000Y-100212000D02*
X71475696Y-100113452D01*
X71412023Y-100177089D02*
X79197334Y-92504071D01*
X79197334Y-92504071D02*
X93829000Y-92465000D01*
X113638000Y-68462000D02*
X110250000Y-71850000D01*
X110250000Y-71850000D02*
X110250000Y-75900000D01*
X113638000Y-68462000D02*
X115000000Y-68462000D01*
X110250000Y-82050000D02*
X110250000Y-75900000D01*
X99835000Y-92465000D02*
X110250000Y-82050000D01*
X73100000Y-101753725D02*
X73100000Y-103296000D01*
X73100000Y-103296000D02*
X69826000Y-106570000D01*
X100100000Y-94685263D02*
X101814737Y-94685263D01*
X113500000Y-81392000D02*
X115000000Y-79892000D01*
X113500000Y-83000000D02*
X113500000Y-81392000D01*
X101814737Y-94685263D02*
X113500000Y-83000000D01*
X94999234Y-94685263D02*
X100100000Y-94685263D01*
X100100000Y-94685263D02*
X100206737Y-94685263D01*
X114932985Y-79824985D02*
X115000000Y-79892000D01*
X73129015Y-101753725D02*
X73100000Y-101753725D01*
X73100000Y-101753725D02*
X73096275Y-101753725D01*
X95023127Y-94685104D02*
X94999234Y-94685263D01*
X94999234Y-94685263D02*
X79805350Y-94786688D01*
X79805350Y-94786688D02*
X73129015Y-101753725D01*
X73096275Y-101753725D02*
X73050000Y-102150000D01*
X69826000Y-106308000D02*
X69826000Y-106570000D01*
X73678991Y-102080444D02*
X73678991Y-105257009D01*
X73678991Y-105257009D02*
X69826000Y-109110000D01*
X95099985Y-95306894D02*
X102125106Y-95306894D01*
X102125106Y-95306894D02*
X115000000Y-82432000D01*
X114999966Y-82432034D02*
X115000000Y-82432000D01*
X95170131Y-95307042D02*
X95099985Y-95306894D01*
X95099985Y-95306894D02*
X80013956Y-95274967D01*
X80013956Y-95274967D02*
X73678991Y-102080444D01*
X73678991Y-102080444D02*
X73647825Y-102113925D01*
X108250000Y-93100000D02*
X114238000Y-93100000D01*
X114238000Y-93100000D02*
X115000000Y-93862000D01*
X115150000Y-93900000D02*
X115212000Y-93962000D01*
X114788000Y-93650000D02*
X115000000Y-93862000D01*
X108250000Y-95600000D02*
X114198000Y-95600000D01*
X114198000Y-95600000D02*
X115000000Y-96402000D01*
X114902000Y-96500000D02*
X115000000Y-96402000D01*
D33*
X84700000Y-106250000D02*
X84700000Y-108500000D01*
X85200000Y-116300000D02*
X85200000Y-109000000D01*
X83400000Y-118100000D02*
X85200000Y-116300000D01*
X75100000Y-118100000D02*
X83400000Y-118100000D01*
X70000000Y-113000000D02*
X75100000Y-118100000D01*
X68400000Y-113000000D02*
X70000000Y-113000000D01*
X68400000Y-113000000D02*
X67286000Y-111886000D01*
X84700000Y-108500000D02*
X85200000Y-109000000D01*
X67286000Y-109110000D02*
X67286000Y-111650000D01*
X84700000Y-106250000D02*
X84700000Y-106050000D01*
X84700000Y-106050000D02*
X88150000Y-102600000D01*
X111342000Y-102600000D02*
X115000000Y-98942000D01*
X88150000Y-102600000D02*
X111342000Y-102600000D01*
D32*
X84700000Y-106250000D02*
X84700000Y-104350000D01*
X83500000Y-103150000D02*
X82700000Y-103150000D01*
X84700000Y-104350000D02*
X83500000Y-103150000D01*
D33*
X84700000Y-106250000D02*
X85950000Y-106250000D01*
X85950000Y-106250000D02*
X87150000Y-107450000D01*
D32*
X106550000Y-93300000D02*
X105500000Y-93300000D01*
X106550000Y-93300000D02*
X106750000Y-93100000D01*
X71900000Y-101150002D02*
X71900000Y-102800000D01*
X94000000Y-93500000D02*
X80147609Y-93500000D01*
X79650002Y-93500000D02*
X71900000Y-101150002D01*
X80147609Y-93500000D02*
X79650002Y-93500000D01*
X71900000Y-102800000D02*
X70670000Y-104030000D01*
X70670000Y-104030000D02*
X69826000Y-104030000D01*
X94000000Y-93500000D02*
X100800000Y-93500000D01*
X100800000Y-93500000D02*
X100900000Y-93400000D01*
X94000000Y-93500000D02*
X94200000Y-93500000D01*
X104700000Y-94100000D02*
X105250000Y-94100000D01*
X101450000Y-94050000D02*
X101500000Y-94000000D01*
X79900000Y-94050000D02*
X94550000Y-94050000D01*
X72600000Y-101350000D02*
X79200000Y-94750000D01*
X79200000Y-94750000D02*
X79900000Y-94050000D01*
X94550000Y-94050000D02*
X101450000Y-94050000D01*
X105250000Y-94100000D02*
X106750000Y-95600000D01*
X76850000Y-83250000D02*
X79841000Y-83250000D01*
X79841000Y-83250000D02*
X79956000Y-83365000D01*
X81850000Y-85000000D02*
X81850000Y-86500000D01*
X81850000Y-83315000D02*
X81850000Y-85000000D01*
X70600000Y-97750000D02*
X68486000Y-97750000D01*
X79250000Y-89100000D02*
X70600000Y-97750000D01*
X68486000Y-97750000D02*
X67286000Y-98950000D01*
X81850000Y-86500000D02*
X79250000Y-89100000D01*
X79956000Y-83365000D02*
X81850000Y-83315000D01*
X81850000Y-83315000D02*
X81884998Y-83315000D01*
X81884998Y-83315000D02*
X81800000Y-83399998D01*
X79956000Y-83365000D02*
X79841000Y-83250000D01*
X69826000Y-83726000D02*
X69826000Y-83710000D01*
X69750000Y-86250000D02*
X69826000Y-86250000D01*
D33*
X109500000Y-118400000D02*
X108900000Y-117800000D01*
X108900000Y-117800000D02*
X108900000Y-114500000D01*
X87560000Y-111750000D02*
X87560000Y-115060000D01*
X115000000Y-112900000D02*
X115000000Y-101482000D01*
X109500000Y-118400000D02*
X115000000Y-112900000D01*
X90900000Y-118400000D02*
X109500000Y-118400000D01*
X87560000Y-115060000D02*
X90900000Y-118400000D01*
D32*
X69826000Y-101490000D02*
X69110000Y-101490000D01*
X69110000Y-101490000D02*
X68900000Y-101700000D01*
X69110000Y-101490000D02*
X68900000Y-101700000D01*
X68900000Y-101700000D02*
X67900000Y-102700000D01*
X65900000Y-105184000D02*
X67286000Y-106570000D01*
X65900000Y-103600000D02*
X65900000Y-105184000D01*
X66800000Y-102700000D02*
X65900000Y-103600000D01*
X67900000Y-102700000D02*
X66800000Y-102700000D01*
D33*
X108800000Y-66900000D02*
X108900000Y-66900000D01*
X75050000Y-85800000D02*
X76600000Y-85800000D01*
X76600000Y-85800000D02*
X76700000Y-85900000D01*
X96750000Y-88400000D02*
X96750000Y-88150000D01*
X90450000Y-88400000D02*
X96750000Y-88400000D01*
X99400000Y-85500000D02*
X95150000Y-85500000D01*
X96750000Y-88150000D02*
X99400000Y-85500000D01*
X95150000Y-82300000D02*
X98250000Y-82300000D01*
X101100000Y-79400000D02*
X90450000Y-79500000D01*
X98250000Y-82300000D02*
X101100000Y-79400000D01*
X82700000Y-101150000D02*
X82700000Y-99300000D01*
X82700000Y-99300000D02*
X82650000Y-99250000D01*
X85544000Y-82095000D02*
X85550000Y-82089000D01*
X85550000Y-82089000D02*
X85550000Y-80100000D01*
X91750000Y-107450000D02*
X91750000Y-111300000D01*
X76750000Y-105650000D02*
X76750000Y-102750000D01*
X112500000Y-73550000D02*
X112600000Y-73550000D01*
D34*
G36*
X113395291Y-98567209D02*
X113392642Y-98582974D01*
X113513783Y-98815000D01*
X114873000Y-98815000D01*
X114873000Y-98795000D01*
X115127000Y-98795000D01*
X115127000Y-98815000D01*
X115147000Y-98815000D01*
X115147000Y-99069000D01*
X115127000Y-99069000D01*
X115127000Y-99089000D01*
X114873000Y-99089000D01*
X114873000Y-99069000D01*
X113513783Y-99069000D01*
X113392642Y-99301026D01*
X113395291Y-99316791D01*
X113649268Y-99844036D01*
X114065069Y-100215539D01*
X113755585Y-100422330D01*
X113430729Y-100908511D01*
X113406418Y-101030732D01*
X110445556Y-104073840D01*
X91398005Y-104373016D01*
X91348759Y-104383796D01*
X91306935Y-104413583D01*
X88706935Y-107213583D01*
X88680646Y-107256599D01*
X88673000Y-107300000D01*
X88673000Y-109577791D01*
X88450069Y-109586365D01*
X88147419Y-109384141D01*
X88119448Y-109378577D01*
X88188327Y-109309699D01*
X88285000Y-109076310D01*
X88285000Y-107735750D01*
X88126250Y-107577000D01*
X87277000Y-107577000D01*
X87277000Y-107597000D01*
X87023000Y-107597000D01*
X87023000Y-107577000D01*
X86173750Y-107577000D01*
X86015000Y-107735750D01*
X86015000Y-109076310D01*
X86111673Y-109309699D01*
X86290302Y-109488327D01*
X86523691Y-109585000D01*
X86671974Y-109585000D01*
X86561204Y-109659014D01*
X86195119Y-109673094D01*
X86146130Y-109684991D01*
X86105629Y-109715011D01*
X86079999Y-109758422D01*
X86073000Y-109800000D01*
X86073000Y-110560984D01*
X86025000Y-110802296D01*
X86025000Y-112697704D01*
X86073000Y-112939016D01*
X86073000Y-116250232D01*
X83644511Y-118873000D01*
X74852606Y-118873000D01*
X72135302Y-116155696D01*
X72135630Y-115780126D01*
X71583400Y-114443628D01*
X70561751Y-113420194D01*
X69937639Y-113161040D01*
X70689600Y-113161040D01*
X70924917Y-113116762D01*
X71141041Y-112977690D01*
X71286031Y-112765490D01*
X71314076Y-112627000D01*
X71747394Y-112627000D01*
X76510197Y-117389803D01*
X76552211Y-117417666D01*
X76600000Y-117427000D01*
X83100000Y-117427000D01*
X83149410Y-117416994D01*
X83187041Y-117392481D01*
X84887041Y-115792481D01*
X84916164Y-115751331D01*
X84926984Y-115697984D01*
X84902290Y-114142240D01*
X85101441Y-114014090D01*
X85246431Y-113801890D01*
X85297440Y-113550000D01*
X85297440Y-109950000D01*
X85253162Y-109714683D01*
X85114090Y-109498559D01*
X84901890Y-109353569D01*
X84808926Y-109334743D01*
X84808902Y-109334659D01*
X84635000Y-109044822D01*
X84635000Y-108950000D01*
X84567633Y-108611325D01*
X84375790Y-108324210D01*
X84375787Y-108324208D01*
X84125790Y-108074210D01*
X83946669Y-107954526D01*
X83838675Y-107882367D01*
X83782484Y-107871190D01*
X83500000Y-107814999D01*
X83499995Y-107815000D01*
X83327000Y-107815000D01*
X83327000Y-106535750D01*
X83615000Y-106535750D01*
X83615000Y-107226310D01*
X83711673Y-107459699D01*
X83890302Y-107638327D01*
X84123691Y-107735000D01*
X84414250Y-107735000D01*
X84573000Y-107576250D01*
X84573000Y-106377000D01*
X84827000Y-106377000D01*
X84827000Y-107576250D01*
X84985750Y-107735000D01*
X85276309Y-107735000D01*
X85509698Y-107638327D01*
X85688327Y-107459699D01*
X85785000Y-107226310D01*
X85785000Y-106535750D01*
X85626250Y-106377000D01*
X84827000Y-106377000D01*
X84573000Y-106377000D01*
X83773750Y-106377000D01*
X83615000Y-106535750D01*
X83327000Y-106535750D01*
X83327000Y-105273690D01*
X83615000Y-105273690D01*
X83615000Y-105964250D01*
X83773750Y-106123000D01*
X84573000Y-106123000D01*
X84573000Y-104923750D01*
X84827000Y-104923750D01*
X84827000Y-106123000D01*
X85626250Y-106123000D01*
X85785000Y-105964250D01*
X85785000Y-105823690D01*
X86015000Y-105823690D01*
X86015000Y-107164250D01*
X86173750Y-107323000D01*
X87023000Y-107323000D01*
X87023000Y-105473750D01*
X87277000Y-105473750D01*
X87277000Y-107323000D01*
X88126250Y-107323000D01*
X88285000Y-107164250D01*
X88285000Y-105823690D01*
X88188327Y-105590301D01*
X88009698Y-105411673D01*
X87776309Y-105315000D01*
X87435750Y-105315000D01*
X87277000Y-105473750D01*
X87023000Y-105473750D01*
X86864250Y-105315000D01*
X86523691Y-105315000D01*
X86290302Y-105411673D01*
X86111673Y-105590301D01*
X86015000Y-105823690D01*
X85785000Y-105823690D01*
X85785000Y-105273690D01*
X85688327Y-105040301D01*
X85509698Y-104861673D01*
X85276309Y-104765000D01*
X84985750Y-104765000D01*
X84827000Y-104923750D01*
X84573000Y-104923750D01*
X84414250Y-104765000D01*
X84123691Y-104765000D01*
X83890302Y-104861673D01*
X83711673Y-105040301D01*
X83615000Y-105273690D01*
X83327000Y-105273690D01*
X83327000Y-104700000D01*
X83316994Y-104650590D01*
X83289803Y-104610197D01*
X82827002Y-104147396D01*
X82827002Y-104126252D01*
X82985750Y-104285000D01*
X83451310Y-104285000D01*
X83684699Y-104188327D01*
X83863327Y-104009698D01*
X83960000Y-103776309D01*
X83960000Y-103435750D01*
X83801250Y-103277000D01*
X82827000Y-103277000D01*
X82827000Y-103297000D01*
X82573000Y-103297000D01*
X82573000Y-103277000D01*
X81598750Y-103277000D01*
X81440000Y-103435750D01*
X81440000Y-103776309D01*
X81521472Y-103973000D01*
X80827000Y-103973000D01*
X80827000Y-102227000D01*
X81599975Y-102227000D01*
X81536673Y-102290302D01*
X81440000Y-102523691D01*
X81440000Y-102864250D01*
X81598750Y-103023000D01*
X82573000Y-103023000D01*
X82573000Y-103003000D01*
X82827000Y-103003000D01*
X82827000Y-103023000D01*
X83801250Y-103023000D01*
X83960000Y-102864250D01*
X83960000Y-102523691D01*
X83863327Y-102290302D01*
X83800025Y-102227000D01*
X84200000Y-102227000D01*
X84249410Y-102216994D01*
X84276200Y-102201600D01*
X84642333Y-101927000D01*
X110300000Y-101927000D01*
X110349410Y-101916994D01*
X110381303Y-101897564D01*
X112781303Y-99897564D01*
X112812856Y-99858246D01*
X112827000Y-99800000D01*
X112827000Y-98875091D01*
X113398357Y-98560845D01*
X113395291Y-98567209D01*
X113395291Y-98567209D01*
G37*
X113395291Y-98567209D02*
X113392642Y-98582974D01*
X113513783Y-98815000D01*
X114873000Y-98815000D01*
X114873000Y-98795000D01*
X115127000Y-98795000D01*
X115127000Y-98815000D01*
X115147000Y-98815000D01*
X115147000Y-99069000D01*
X115127000Y-99069000D01*
X115127000Y-99089000D01*
X114873000Y-99089000D01*
X114873000Y-99069000D01*
X113513783Y-99069000D01*
X113392642Y-99301026D01*
X113395291Y-99316791D01*
X113649268Y-99844036D01*
X114065069Y-100215539D01*
X113755585Y-100422330D01*
X113430729Y-100908511D01*
X113406418Y-101030732D01*
X110445556Y-104073840D01*
X91398005Y-104373016D01*
X91348759Y-104383796D01*
X91306935Y-104413583D01*
X88706935Y-107213583D01*
X88680646Y-107256599D01*
X88673000Y-107300000D01*
X88673000Y-109577791D01*
X88450069Y-109586365D01*
X88147419Y-109384141D01*
X88119448Y-109378577D01*
X88188327Y-109309699D01*
X88285000Y-109076310D01*
X88285000Y-107735750D01*
X88126250Y-107577000D01*
X87277000Y-107577000D01*
X87277000Y-107597000D01*
X87023000Y-107597000D01*
X87023000Y-107577000D01*
X86173750Y-107577000D01*
X86015000Y-107735750D01*
X86015000Y-109076310D01*
X86111673Y-109309699D01*
X86290302Y-109488327D01*
X86523691Y-109585000D01*
X86671974Y-109585000D01*
X86561204Y-109659014D01*
X86195119Y-109673094D01*
X86146130Y-109684991D01*
X86105629Y-109715011D01*
X86079999Y-109758422D01*
X86073000Y-109800000D01*
X86073000Y-110560984D01*
X86025000Y-110802296D01*
X86025000Y-112697704D01*
X86073000Y-112939016D01*
X86073000Y-116250232D01*
X83644511Y-118873000D01*
X74852606Y-118873000D01*
X72135302Y-116155696D01*
X72135630Y-115780126D01*
X71583400Y-114443628D01*
X70561751Y-113420194D01*
X69937639Y-113161040D01*
X70689600Y-113161040D01*
X70924917Y-113116762D01*
X71141041Y-112977690D01*
X71286031Y-112765490D01*
X71314076Y-112627000D01*
X71747394Y-112627000D01*
X76510197Y-117389803D01*
X76552211Y-117417666D01*
X76600000Y-117427000D01*
X83100000Y-117427000D01*
X83149410Y-117416994D01*
X83187041Y-117392481D01*
X84887041Y-115792481D01*
X84916164Y-115751331D01*
X84926984Y-115697984D01*
X84902290Y-114142240D01*
X85101441Y-114014090D01*
X85246431Y-113801890D01*
X85297440Y-113550000D01*
X85297440Y-109950000D01*
X85253162Y-109714683D01*
X85114090Y-109498559D01*
X84901890Y-109353569D01*
X84808926Y-109334743D01*
X84808902Y-109334659D01*
X84635000Y-109044822D01*
X84635000Y-108950000D01*
X84567633Y-108611325D01*
X84375790Y-108324210D01*
X84375787Y-108324208D01*
X84125790Y-108074210D01*
X83946669Y-107954526D01*
X83838675Y-107882367D01*
X83782484Y-107871190D01*
X83500000Y-107814999D01*
X83499995Y-107815000D01*
X83327000Y-107815000D01*
X83327000Y-106535750D01*
X83615000Y-106535750D01*
X83615000Y-107226310D01*
X83711673Y-107459699D01*
X83890302Y-107638327D01*
X84123691Y-107735000D01*
X84414250Y-107735000D01*
X84573000Y-107576250D01*
X84573000Y-106377000D01*
X84827000Y-106377000D01*
X84827000Y-107576250D01*
X84985750Y-107735000D01*
X85276309Y-107735000D01*
X85509698Y-107638327D01*
X85688327Y-107459699D01*
X85785000Y-107226310D01*
X85785000Y-106535750D01*
X85626250Y-106377000D01*
X84827000Y-106377000D01*
X84573000Y-106377000D01*
X83773750Y-106377000D01*
X83615000Y-106535750D01*
X83327000Y-106535750D01*
X83327000Y-105273690D01*
X83615000Y-105273690D01*
X83615000Y-105964250D01*
X83773750Y-106123000D01*
X84573000Y-106123000D01*
X84573000Y-104923750D01*
X84827000Y-104923750D01*
X84827000Y-106123000D01*
X85626250Y-106123000D01*
X85785000Y-105964250D01*
X85785000Y-105823690D01*
X86015000Y-105823690D01*
X86015000Y-107164250D01*
X86173750Y-107323000D01*
X87023000Y-107323000D01*
X87023000Y-105473750D01*
X87277000Y-105473750D01*
X87277000Y-107323000D01*
X88126250Y-107323000D01*
X88285000Y-107164250D01*
X88285000Y-105823690D01*
X88188327Y-105590301D01*
X88009698Y-105411673D01*
X87776309Y-105315000D01*
X87435750Y-105315000D01*
X87277000Y-105473750D01*
X87023000Y-105473750D01*
X86864250Y-105315000D01*
X86523691Y-105315000D01*
X86290302Y-105411673D01*
X86111673Y-105590301D01*
X86015000Y-105823690D01*
X85785000Y-105823690D01*
X85785000Y-105273690D01*
X85688327Y-105040301D01*
X85509698Y-104861673D01*
X85276309Y-104765000D01*
X84985750Y-104765000D01*
X84827000Y-104923750D01*
X84573000Y-104923750D01*
X84414250Y-104765000D01*
X84123691Y-104765000D01*
X83890302Y-104861673D01*
X83711673Y-105040301D01*
X83615000Y-105273690D01*
X83327000Y-105273690D01*
X83327000Y-104700000D01*
X83316994Y-104650590D01*
X83289803Y-104610197D01*
X82827002Y-104147396D01*
X82827002Y-104126252D01*
X82985750Y-104285000D01*
X83451310Y-104285000D01*
X83684699Y-104188327D01*
X83863327Y-104009698D01*
X83960000Y-103776309D01*
X83960000Y-103435750D01*
X83801250Y-103277000D01*
X82827000Y-103277000D01*
X82827000Y-103297000D01*
X82573000Y-103297000D01*
X82573000Y-103277000D01*
X81598750Y-103277000D01*
X81440000Y-103435750D01*
X81440000Y-103776309D01*
X81521472Y-103973000D01*
X80827000Y-103973000D01*
X80827000Y-102227000D01*
X81599975Y-102227000D01*
X81536673Y-102290302D01*
X81440000Y-102523691D01*
X81440000Y-102864250D01*
X81598750Y-103023000D01*
X82573000Y-103023000D01*
X82573000Y-103003000D01*
X82827000Y-103003000D01*
X82827000Y-103023000D01*
X83801250Y-103023000D01*
X83960000Y-102864250D01*
X83960000Y-102523691D01*
X83863327Y-102290302D01*
X83800025Y-102227000D01*
X84200000Y-102227000D01*
X84249410Y-102216994D01*
X84276200Y-102201600D01*
X84642333Y-101927000D01*
X110300000Y-101927000D01*
X110349410Y-101916994D01*
X110381303Y-101897564D01*
X112781303Y-99897564D01*
X112812856Y-99858246D01*
X112827000Y-99800000D01*
X112827000Y-98875091D01*
X113398357Y-98560845D01*
X113395291Y-98567209D01*
G36*
X67413000Y-108983000D02*
X67433000Y-108983000D01*
X67433000Y-109237000D01*
X67413000Y-109237000D01*
X67413000Y-111523000D01*
X67433000Y-111523000D01*
X67433000Y-111777000D01*
X67413000Y-111777000D01*
X67413000Y-111797000D01*
X67159000Y-111797000D01*
X67159000Y-111777000D01*
X67139000Y-111777000D01*
X67139000Y-111523000D01*
X67159000Y-111523000D01*
X67159000Y-109237000D01*
X67139000Y-109237000D01*
X67139000Y-108983000D01*
X67159000Y-108983000D01*
X67159000Y-108963000D01*
X67413000Y-108963000D01*
X67413000Y-108983000D01*
X67413000Y-108983000D01*
G37*
X67413000Y-108983000D02*
X67433000Y-108983000D01*
X67433000Y-109237000D01*
X67413000Y-109237000D01*
X67413000Y-111523000D01*
X67433000Y-111523000D01*
X67433000Y-111777000D01*
X67413000Y-111777000D01*
X67413000Y-111797000D01*
X67159000Y-111797000D01*
X67159000Y-111777000D01*
X67139000Y-111777000D01*
X67139000Y-111523000D01*
X67159000Y-111523000D01*
X67159000Y-109237000D01*
X67139000Y-109237000D01*
X67139000Y-108983000D01*
X67159000Y-108983000D01*
X67159000Y-108963000D01*
X67413000Y-108963000D01*
X67413000Y-108983000D01*
M02*
